<?xml version="1.0" encoding="UTF-8" standalone="no"?>
<svg
   width="183.96399"
   height="264.75098"
   viewBox="-2 -2 52.146078 75.045803"
   version="1.1"
   xml:space="preserve"
   id="svg1"
   xmlns="http://www.w3.org/2000/svg"
   xmlns:svg="http://www.w3.org/2000/svg"><defs
   id="defs1" />
  <path
   style="display:inline;fill:none;stroke:#1e53a7;stroke-width:1.41729;stroke-linejoin:round;stroke-dasharray:none;stroke-opacity:1"
   d="M 22.120889,-0.57188118 -0.24434471,18.598041 c -0.83471699,0.715873 -1.21092999,1.831023 -0.98046899,2.90625 l 9.583984,44.728515 c 0.174441,0.812403 0.67798,1.516085 1.390625,1.94336 9.2765317,5.565954 19.3699757,5.565957 28.6464847,0 0.712646,-0.427275 1.216184,-1.130957 1.390625,-1.94336 L 49.370889,21.504291 C 49.60135,20.429064 49.225136,19.313914 48.39042,18.598041 L 26.025186,-0.57188118 c -1.12344,-0.96258902 -2.780857,-0.96258902 -3.904297,0 z"
   id="path5" /><path
   style="display:inline;fill:#0da8e6;stroke:#ffffff;stroke-width:4.53533;stroke-linejoin:round;stroke-dasharray:none;stroke-opacity:1"
   d="M 24.073052,1.7028176 1.7082695,20.872625 11.293173,65.602162 c 8.519919,5.111984 17.039839,5.111984 25.559733,0 l 9.584903,-44.729537 z"
   id="path3" />
</svg>
