<?xml version="1.0" encoding="UTF-8" standalone="no"?>
<svg
   width="188.96277"
   height="269.69467"
   viewBox="-2 -2 53.563022 76.447133"
   version="1.1"
   xml:space="preserve"
   id="svg1"
   xmlns="http://www.w3.org/2000/svg"
   xmlns:svg="http://www.w3.org/2000/svg"><defs
   id="defs1" />
  <path
   style="display:inline;fill:none;stroke:#1e53a7;stroke-width:2.83458;stroke-linejoin:round;stroke-dasharray:none;stroke-opacity:1"
   d="M 22.829363,0.13429593 0.4641294,19.304218 c -0.83471699,0.715873 -1.21092999,1.831023 -0.98046899,2.90625 L 9.0676444,66.938983 c 0.174441,0.812403 0.67798,1.516085 1.3906246,1.94336 9.276532,5.565954 19.369976,5.565957 28.646485,0 0.712646,-0.427275 1.216184,-1.130957 1.390625,-1.94336 l 9.583984,-44.728515 c 0.230461,-1.075227 -0.145753,-2.190377 -0.980469,-2.90625 L 26.73366,0.13429593 c -1.12344,-0.96258902 -2.780857,-0.96258902 -3.904297,0 z"
   id="path5" /><path
   style="display:inline;fill:#0da8e6;stroke:#ffffff;stroke-width:4.53533;stroke-linejoin:round;stroke-dasharray:none;stroke-opacity:1"
   d="M 24.781526,2.4089947 2.4167436,21.578802 12.001647,66.308339 c 8.519919,5.111984 17.039839,5.111984 25.559733,0 l 9.584903,-44.729537 z"
   id="path3" />
</svg>
