<svg width="145" height="40" viewBox="0 0 145 40" fill="none" xmlns="http://www.w3.org/2000/svg">
<path d="M49.3376 0H48.9004V36.7867H49.3376V0Z" fill="#FCBA19"/>
<path d="M37.8766 12.7642C35.842 4.95533 28.7523 0.106445 21.6223 0.106445C14.4924 0.106445 7.14378 5.07533 5.2029 13.2309C4.93073 14.3687 4.79688 15.6398 4.79688 16.8531C4.79688 17.9287 4.90842 18.8398 5.10474 19.862C5.25198 19.8309 5.31444 19.8176 5.47953 19.782C7.00546 19.5198 9.4193 19.2087 11.4806 19.4664C14.7601 19.8798 16.808 20.4309 20.2659 21.2087C23.7238 21.9864 26.276 22.7198 30.006 22.3109C33.2765 21.9509 35.5119 21.4442 37.6892 20.0131L37.8632 19.8976C37.8989 19.8709 38.0462 19.7642 38.0953 19.7287C38.2559 18.7998 38.3764 17.8709 38.3764 16.8976C38.3764 15.5287 38.1845 14.0442 37.8766 12.7731" fill="white"/>
<path d="M5.19397 13.2755C5.05566 13.9378 4.79688 15.1867 4.79688 16.8533C4.79688 17.9289 4.90842 18.84 5.10474 19.8622C5.25198 19.8311 5.31444 19.8178 5.47953 19.7822C7.00546 19.52 9.4193 19.2089 11.4806 19.4667C14.7556 19.88 16.808 20.4267 20.2659 21.2089C23.7238 21.9867 26.276 22.72 30.006 22.3111C33.2721 21.9511 35.5119 21.4444 37.6892 20.0133L37.8632 19.8978C37.8989 19.8755 38.0506 19.7644 38.0953 19.7289C38.2559 18.8 38.3764 17.8711 38.3764 16.8978C38.3764 15.5867 38.1979 14.1733 37.9123 12.9378L35.6011 11.6533L32.9285 13.52L31.1304 12.8222C30.5191 13.1289 26.7623 15.6355 26.7623 15.6355L25.3211 14.5955L23.7729 14.2889L21.7115 12.7911L19.3423 14.4089C19.3423 14.4089 16.7009 15.9378 16.6117 15.9378C16.5225 15.9378 13.426 13.4933 13.426 13.4933L11.9982 11.9955C11.7573 12.1467 10.7846 12.5911 10.7846 12.5911L10.7355 12.6044L9.79855 12.3111L8.66079 11.7111L5.19844 13.2755H5.19397Z" fill="#013366"/>
<path d="M5.95254 24.6893C5.95254 24.0181 5.91239 23.8493 5.45729 23.8137L5.13604 23.787C5.05572 23.7337 5.06465 23.5959 5.14496 23.5604C5.6893 23.5159 6.37195 23.4893 7.30893 23.4893C7.94251 23.4893 8.54931 23.5337 8.99995 23.7426C9.43275 23.9293 9.76738 24.2937 9.76738 24.8715C9.76738 25.5248 9.34351 25.8537 8.74117 26.107C8.74117 26.2004 8.82148 26.2226 8.93302 26.2404C9.47736 26.3293 10.2805 26.7826 10.2805 27.747C10.2805 28.7959 9.4149 29.5026 7.60341 29.5026C7.31339 29.5026 6.81813 29.4759 6.39426 29.4759C5.97039 29.4759 5.60899 29.4937 5.23866 29.5026C5.18065 29.4759 5.15834 29.3293 5.22081 29.2759L5.40374 29.2493C5.93916 29.1693 5.95701 29.067 5.95701 28.1204V24.6893H5.95254ZM6.77798 25.8893C6.77798 26.1426 6.7869 26.1604 7.30001 26.1426C8.32622 26.107 8.87948 25.8359 8.87948 24.987C8.87948 24.1381 8.14329 23.7648 7.38032 23.7648C7.15723 23.7648 7.00999 23.7826 6.91629 23.8181C6.81367 23.8448 6.77352 23.8937 6.77352 24.0537V25.8848L6.77798 25.8893ZM6.77798 27.987C6.77798 28.3115 6.79582 28.7737 6.98768 28.9737C7.17954 29.1826 7.48294 29.227 7.78188 29.227C8.6787 29.227 9.36136 28.867 9.36136 27.9648C9.36136 27.2493 8.9598 26.4226 7.35801 26.4226C6.81367 26.4226 6.77352 26.4759 6.77352 26.6581V27.9959L6.77798 27.987Z" fill="#013366"/>
<path d="M17.2763 25.5778C17.2763 24.7601 17.2585 24.6267 16.7543 24.5912L16.5401 24.5778C16.4866 24.5467 16.5044 24.4089 16.558 24.3867C16.9863 24.4001 17.2808 24.4089 17.6422 24.4089C18.0036 24.4089 18.2758 24.4001 18.7086 24.3867C18.7621 24.4089 18.7755 24.5467 18.7264 24.5778L18.5123 24.5912C18.0036 24.6312 17.9858 24.7601 17.9858 25.5778V28.3245C17.9858 29.1423 18.0036 29.2534 18.5123 29.3067L18.7264 29.3289C18.78 29.3601 18.7621 29.4978 18.7086 29.5201C18.2802 29.5023 17.9858 29.4978 17.6422 29.4978C17.2808 29.4978 16.9908 29.5067 16.558 29.5201C16.5044 29.4978 16.4866 29.3734 16.5401 29.3289L16.7543 29.3067C17.263 29.2534 17.2763 29.1467 17.2763 28.3245V25.5778Z" fill="#013366"/>
<path d="M22.0458 28.3374C22.0458 29.1507 22.0637 29.2618 22.5277 29.3018L22.7865 29.324C22.8355 29.3551 22.8177 29.4929 22.7686 29.5151C22.3091 29.4974 22.0369 29.4929 21.7112 29.4929C21.3855 29.4929 21.1088 29.5018 20.5913 29.5151C20.5422 29.4929 20.5288 29.3596 20.5913 29.324L20.8813 29.3018C21.3408 29.2618 21.381 29.1507 21.381 28.3374V24.8885C21.381 24.6485 21.381 24.6396 21.1401 24.6396H20.6983C20.3503 24.6396 19.9086 24.6529 19.7078 24.8307C19.516 24.9996 19.4357 25.1685 19.3464 25.364C19.284 25.4085 19.168 25.3685 19.1367 25.3107C19.2661 24.964 19.3866 24.4707 19.4446 24.1596C19.4669 24.1418 19.574 24.1374 19.5963 24.1596C19.6454 24.4085 19.9131 24.3951 20.2834 24.3951H23.545C23.9822 24.3951 24.0536 24.3818 24.1741 24.1774C24.2142 24.164 24.3035 24.1685 24.3213 24.1996C24.2321 24.5151 24.1741 25.1418 24.2009 25.3729C24.1696 25.4351 24.0313 25.4351 23.9912 25.3862C23.9688 25.1951 23.9108 24.9062 23.7904 24.8262C23.6074 24.6974 23.2996 24.6351 22.8579 24.6351H22.2867C22.0458 24.6351 22.0547 24.644 22.0547 24.8974V28.3329L22.0458 28.3374Z" fill="#013366"/>
<path d="M25.4956 25.5778C25.4956 24.7601 25.4778 24.6267 24.9692 24.5912L24.755 24.5778C24.7014 24.5467 24.7193 24.4089 24.7728 24.3867C25.2012 24.4001 25.4956 24.4089 25.857 24.4089C26.2185 24.4089 26.4951 24.4001 26.9234 24.3867C26.977 24.4089 26.9903 24.5467 26.9413 24.5778L26.7271 24.5912C26.2185 24.6312 26.2006 24.7601 26.2006 25.5778V28.3245C26.2006 29.1423 26.2185 29.2534 26.7271 29.3067L26.9413 29.3289C26.9948 29.3601 26.977 29.4978 26.9234 29.5201C26.4951 29.5023 26.2006 29.4978 25.857 29.4978C25.5135 29.4978 25.2056 29.5067 24.7728 29.5201C24.7193 29.4978 24.7059 29.3734 24.755 29.3289L24.9692 29.3067C25.4778 29.2534 25.4956 29.1467 25.4956 28.3245V25.5778Z" fill="#013366"/>
<path d="M29.3504 29.5999C28.5829 29.5999 28.101 29.3999 27.927 29.3155C27.8155 29.1466 27.6995 28.5955 27.6816 28.2355C27.7263 28.1822 27.8646 28.1644 27.9003 28.2133C28.0386 28.6088 28.4134 29.3599 29.4708 29.3599C30.2383 29.3599 30.613 28.9377 30.613 28.4755C30.613 28.1333 30.5283 27.7555 29.8635 27.3955L28.9979 26.9199C28.5428 26.6666 28.0118 26.2266 28.0118 25.5955C28.0118 24.8622 28.6855 24.2666 29.8768 24.2666C30.1579 24.2666 30.4881 24.311 30.7246 24.3644C30.8451 24.3955 30.97 24.4088 31.0458 24.4088C31.1261 24.5955 31.2109 25.0266 31.2109 25.351C31.1752 25.3999 31.028 25.4222 30.9834 25.3733C30.8629 25.0044 30.6175 24.5022 29.7385 24.5022C28.8596 24.5022 28.6498 25.0044 28.6498 25.3599C28.6498 25.8088 29.0871 26.1333 29.4262 26.3066L30.1579 26.6933C30.7335 26.9955 31.3002 27.4399 31.3002 28.1733C31.3002 29.0222 30.5417 29.5999 29.3504 29.5999Z" fill="#013366"/>
<path d="M33.9493 27.0041C33.5478 27.0041 33.5344 27.0174 33.5344 27.2485V28.3374C33.5344 29.1507 33.5746 29.2574 34.0431 29.3018L34.284 29.3241C34.3331 29.3552 34.3197 29.4929 34.2661 29.5152C33.8155 29.4974 33.5344 29.4929 33.2087 29.4929C32.8518 29.4929 32.5662 29.5107 32.2405 29.5152C32.1914 29.4929 32.1736 29.3685 32.2226 29.3241L32.3654 29.3018C32.8339 29.2218 32.8473 29.1507 32.8473 28.3374V25.5596C32.8473 24.7507 32.7893 24.6174 32.3565 24.5863L32.1379 24.5729C32.0888 24.5418 32.1022 24.4041 32.1557 24.3818C32.5662 24.3863 32.8473 24.4041 33.2042 24.4041C33.5299 24.4041 33.811 24.3952 34.1724 24.3818C34.2215 24.4041 34.2394 24.5418 34.1903 24.5729L34.0297 24.5863C33.5478 24.6307 33.5299 24.7507 33.5299 25.5596V26.4485C33.5299 26.6885 33.5478 26.6974 33.9449 26.6974H36.3275C36.729 26.6974 36.7424 26.6885 36.7424 26.4485V25.5596C36.7424 24.7507 36.7246 24.6352 36.2338 24.5863L36.0776 24.5729C36.0285 24.5418 36.0419 24.4041 36.0955 24.3818C36.4792 24.3952 36.7603 24.4041 37.1038 24.4041C37.4474 24.4041 37.7106 24.3952 38.0854 24.3818C38.1345 24.4041 38.1524 24.5418 38.1033 24.5729L37.9293 24.5863C37.4474 24.6307 37.4295 24.7507 37.4295 25.5596V28.3374C37.4295 29.1507 37.4474 29.2485 37.9293 29.3018L38.1301 29.3241C38.1791 29.3552 38.1657 29.4929 38.1122 29.5152C37.7106 29.4974 37.4296 29.4929 37.1038 29.4929C36.7603 29.4929 36.4613 29.5018 36.0955 29.5152C36.0464 29.4929 36.0285 29.3685 36.0776 29.3241L36.2338 29.3018C36.7424 29.2218 36.7424 29.1507 36.7424 28.3374V27.2485C36.7424 27.0174 36.7246 27.0041 36.3275 27.0041H33.9449H33.9493Z" fill="#013366"/>
<path d="M1.18293 31.213C1.87005 30.6841 2.7401 30.4219 3.71723 30.4219C4.22588 30.4219 4.9353 30.5241 5.37702 30.6441C5.48856 30.6708 5.55549 30.693 5.64027 30.6797C5.64919 30.893 5.69827 31.4797 5.76966 32.0485C5.72058 32.1108 5.58226 32.1241 5.51533 32.0663C5.37256 31.4308 4.95315 30.7063 3.5923 30.7063C2.1556 30.7063 0.937533 31.6085 0.937533 33.5374C0.937533 35.4663 2.18684 36.573 3.72615 36.573C4.9353 36.573 5.47072 35.7908 5.68488 35.2397C5.75181 35.1952 5.89013 35.213 5.93028 35.2752C5.86335 35.7597 5.62242 36.373 5.47964 36.5508C5.3681 36.5685 5.25655 36.6085 5.14947 36.6441C4.94422 36.7197 4.26603 36.8574 3.66815 36.8574C2.82487 36.8574 2.01729 36.6885 1.33017 36.2308C0.580589 35.7197 -0.00390625 34.8708 -0.00390625 33.6708C-0.00390625 32.6352 0.464582 31.7552 1.17847 31.1997L1.18293 31.213Z" fill="#013366"/>
<path d="M6.3125 34.2264C6.3125 32.6842 7.53503 31.502 9.20821 31.502C11.0866 31.502 12.0281 32.7908 12.0281 34.1464C12.0281 35.7064 10.7743 36.8397 9.20821 36.8397C7.40118 36.8397 6.3125 35.6131 6.3125 34.2264ZM11.216 34.3908C11.216 33.1197 10.6226 31.742 9.06989 31.742C8.22215 31.742 7.12455 32.2886 7.12455 33.982C7.12455 35.1242 7.70904 36.6042 9.31083 36.6042C10.288 36.6042 11.2116 35.9064 11.2116 34.3908H11.216Z" fill="#013366"/>
<path d="M21.2064 33.5645C21.2064 33.0889 21.1886 32.2 21.0503 31.9689C20.9923 31.8756 20.845 31.8223 20.6398 31.8089L20.4345 31.7956C20.3855 31.7423 20.4033 31.64 20.4524 31.6089C20.7647 31.6267 21.0681 31.6312 21.3894 31.6312C21.7329 31.6312 21.956 31.6267 22.2505 31.6089C22.3174 31.6489 22.3085 31.7467 22.2683 31.7956L22.072 31.8089C21.8668 31.8223 21.7106 31.8934 21.6615 31.9912C21.5455 32.2489 21.5455 33.1334 21.5455 33.5645V34.4356C21.5455 35.1067 21.4295 35.8178 20.97 36.28C20.6175 36.6445 20.0107 36.8445 19.4039 36.8445C18.8372 36.8445 18.2706 36.7467 17.869 36.4178C17.4362 36.08 17.231 35.5156 17.231 34.6V32.7778C17.231 31.9734 17.2131 31.8445 16.7402 31.8045L16.5349 31.7912C16.4859 31.7556 16.5037 31.6267 16.5528 31.6045C16.9633 31.6223 17.2399 31.6267 17.5701 31.6267C17.9002 31.6267 18.1769 31.6223 18.5784 31.6045C18.6275 31.6267 18.6454 31.7556 18.5963 31.7912L18.4 31.8045C17.9226 31.8445 17.9092 31.9734 17.9092 32.7778V34.4445C17.9092 35.6845 18.3197 36.5023 19.5779 36.5023C20.7692 36.5023 21.2198 35.6223 21.2198 34.4489V33.56L21.2064 33.5645Z" fill="#013366"/>
<path d="M30.742 32.6316C30.742 32.0627 30.7063 31.916 30.3002 31.8849L30.0102 31.8627C29.9388 31.8183 29.9478 31.7027 30.0191 31.6716C30.5055 31.6316 31.1168 31.6094 31.9511 31.6094C32.5178 31.6094 33.0576 31.6494 33.4592 31.8272C33.8474 31.9916 34.1418 32.2983 34.1418 32.7916C34.1418 33.3472 33.7671 33.6316 33.2272 33.8494C33.2272 33.9249 33.2986 33.9516 33.3967 33.9649C33.8831 34.0405 34.6014 34.4272 34.6014 35.2538C34.6014 36.1472 33.8295 36.7516 32.2099 36.7516C31.9511 36.7516 31.5094 36.7294 31.1301 36.7294C30.7509 36.7294 30.4296 36.7472 30.0995 36.7516C30.0459 36.7294 30.0281 36.6049 30.0816 36.5605L30.2422 36.5383C30.7197 36.4672 30.7375 36.3827 30.7375 35.5738V32.6405L30.742 32.6316ZM31.4782 33.6583C31.4782 33.876 31.4871 33.8894 31.9466 33.876C32.8613 33.8449 33.3566 33.6138 33.3566 32.8894C33.3566 32.1649 32.7007 31.8494 32.018 31.8494C31.8217 31.8494 31.6879 31.8627 31.6075 31.8938C31.5183 31.916 31.4826 31.956 31.4826 32.0938V33.6627L31.4782 33.6583ZM31.4782 35.4494C31.4782 35.7249 31.496 36.1205 31.6656 36.2894C31.8351 36.4672 32.1073 36.5072 32.375 36.5072C33.1736 36.5072 33.7849 36.2005 33.7849 35.4272C33.7849 34.8183 33.4235 34.1072 31.9957 34.1072C31.5094 34.1072 31.4737 34.156 31.4737 34.3072V35.4494H31.4782Z" fill="#013366"/>
<path d="M15.9597 29.3289L15.7455 29.3067C15.7009 29.3067 15.6652 29.2978 15.6251 29.2934C15.3083 29.2356 15.1834 28.9556 15.0361 28.6978L14.291 27.4089C14.1616 27.1911 14.0233 26.9067 13.7333 26.8622C14.4962 26.7734 15.1834 26.3334 15.1834 25.5822C15.1834 24.7156 14.3222 24.3245 13.4477 24.3245C12.9257 24.3245 12.4081 24.36 11.8772 24.36C11.5827 24.36 11.2704 24.3245 10.9759 24.3245C10.8108 24.3245 10.8108 24.36 10.8108 24.4489C10.8108 24.5822 10.8688 24.5467 11.0384 24.5467C11.6809 24.5467 11.6362 24.7067 11.6362 25.2356V28.6178C11.6362 29.1022 11.6764 29.2445 11.1677 29.2889C11.1677 29.2889 11.0874 29.2978 11.0473 29.3022L10.8331 29.3245C10.7796 29.3689 10.7974 29.4934 10.851 29.5156C10.967 29.5156 11.1677 29.5067 11.1677 29.5067C11.4488 29.4978 11.7344 29.4756 12.0155 29.4756C12.2966 29.4756 12.5732 29.4978 12.8498 29.5067C12.948 29.5067 13.0506 29.5111 13.1666 29.5156C13.2202 29.4934 13.2336 29.3689 13.1845 29.3245L12.9658 29.3022C12.9212 29.2978 12.8454 29.2889 12.8454 29.2889C12.3323 29.2534 12.3635 29.1067 12.3635 28.6134V27.3378C12.3635 27.2622 12.3546 27.0622 12.4081 27.0089C12.4527 26.96 12.5375 26.9689 12.6089 26.9689C13.3049 26.9689 13.296 27.0356 13.6262 27.6134L14.523 29.2267C14.5944 29.3511 14.6524 29.5067 14.8353 29.5067H15.6162C15.7143 29.5067 15.8169 29.5111 15.9329 29.5156C15.9865 29.4934 15.9999 29.3689 15.9508 29.3245L15.9597 29.3289ZM12.8275 26.7911C12.6714 26.7911 12.359 26.8489 12.359 26.6445V25.1645C12.359 24.5867 12.3769 24.5022 13.0774 24.5022C13.8939 24.5022 14.3981 24.9156 14.3981 25.6756C14.3981 26.0089 14.2776 26.3111 13.9742 26.52C13.6262 26.76 13.2514 26.7911 12.8275 26.7911Z" fill="#013366"/>
<path d="M12.997 32.8045C12.997 31.9956 12.9792 31.8712 12.4438 31.8312L12.2296 31.8178C12.1761 31.7867 12.1939 31.6489 12.2474 31.6267C12.7249 31.64 13.0149 31.6489 13.354 31.6489C13.6931 31.6489 13.9786 31.64 14.4025 31.6267C14.456 31.6489 14.4694 31.7912 14.4203 31.8178L14.2151 31.8312C13.7109 31.8667 13.6931 31.9956 13.6931 32.8045V35.4889C13.6931 35.9778 13.7198 36.1778 13.8715 36.3245C13.9652 36.4089 14.1259 36.5023 14.7996 36.5023C15.5224 36.5023 15.7053 36.4712 15.8392 36.4045C16.0087 36.3112 16.2318 36.0312 16.4014 35.64C16.4505 35.6 16.6155 35.6312 16.6155 35.6889C16.6155 35.7734 16.3746 36.56 16.2586 36.7689C15.8258 36.7556 15.0138 36.7467 14.1392 36.7467H13.354C12.997 36.7467 12.7249 36.7556 12.2474 36.7689C12.1984 36.7467 12.1805 36.6223 12.2296 36.5778L12.4839 36.5556C12.9792 36.5112 12.997 36.4045 12.997 35.5912V32.8134V32.8045Z" fill="#013366"/>
<path d="M35.8197 32.8178C35.8197 32 35.8018 31.8667 35.311 31.8312L35.1013 31.8178C35.0523 31.7867 35.0701 31.6489 35.1192 31.6267C35.5386 31.64 35.8197 31.6489 36.1722 31.6489C36.5068 31.6489 36.7924 31.64 37.2073 31.6267C37.2564 31.6489 37.2742 31.7912 37.2252 31.8178L37.0155 31.8312C36.5247 31.8667 36.5068 32 36.5068 32.8178V35.5645C36.5068 36.3823 36.5247 36.4889 37.0155 36.5423L37.2252 36.5645C37.2742 36.5956 37.2564 36.7334 37.2073 36.7556C36.7879 36.7423 36.5023 36.7334 36.1722 36.7334C35.8197 36.7334 35.5386 36.7423 35.1192 36.7556C35.0701 36.7334 35.0523 36.6089 35.1013 36.5645L35.311 36.5423C35.8018 36.4889 35.8197 36.3778 35.8197 35.5645V32.8178Z" fill="#013366"/>
<path d="M29.1349 36.5419C29.0948 36.5419 29.01 36.533 29.01 36.533C28.9207 36.5241 28.8449 36.5108 28.7824 36.4442C28.6753 36.333 28.6843 36.0041 28.6843 35.8708V32.4886C28.6843 32.3419 28.6486 32.0219 28.7557 31.9108C28.8092 31.8486 28.9207 31.8397 29.0234 31.8353C29.0858 31.8308 29.0858 31.8308 29.1394 31.8308L29.3535 31.813C29.4071 31.7819 29.3892 31.6441 29.3357 31.6175C29.2197 31.6219 29.1171 31.6175 29.0189 31.6219H28.1042C28.0061 31.6219 27.9168 31.6219 27.8588 31.7286L25.9983 35.5908L24.3519 31.8575C24.2983 31.7286 24.2894 31.6219 24.1154 31.6219H23.165C23.0669 31.6219 22.9553 31.6219 22.8393 31.613C22.7902 31.6353 22.7724 31.7775 22.8215 31.8086L23.0356 31.8264C23.0803 31.8264 23.1606 31.8353 23.1606 31.8353C23.5175 31.8575 23.5398 31.9375 23.5086 32.3108L23.2275 35.9375C23.2052 36.3019 23.1829 36.493 22.7992 36.5286C22.7992 36.5286 22.7188 36.5375 22.6742 36.5419L22.4601 36.5641C22.4065 36.613 22.4244 36.733 22.4779 36.7553C22.5895 36.7508 22.7902 36.7464 22.7902 36.7464C22.9866 36.7375 23.1829 36.7197 23.3792 36.7197C23.5934 36.7197 23.8075 36.7375 24.0217 36.7464C24.1199 36.7464 24.2269 36.7508 24.3385 36.7597C24.392 36.7375 24.4054 36.613 24.3563 36.5686L24.1422 36.5464C24.0842 36.5419 24.0217 36.533 24.0217 36.533C23.4684 36.4975 23.4818 36.1064 23.5175 35.6308L23.7808 32.2619H23.8432L25.6235 36.413C25.6413 36.4708 25.6681 36.5686 25.7573 36.5686C25.8376 36.5686 25.8644 36.4797 25.8912 36.4219L27.899 32.1686H27.9615V35.8753C27.9615 36.0219 27.9793 36.3241 27.8276 36.4397C27.7473 36.4975 27.4885 36.5375 27.4885 36.5375C27.4528 36.5419 27.4171 36.5464 27.3725 36.5508L27.1583 36.573C27.1048 36.6175 27.1226 36.7419 27.1762 36.7642C27.2877 36.7597 27.493 36.7553 27.493 36.7553C27.783 36.7464 28.0819 36.7241 28.3764 36.7241C28.5906 36.7241 29.0055 36.7419 29.0055 36.7419C29.1037 36.7419 29.2197 36.7553 29.3312 36.7597C29.3848 36.7375 29.3982 36.613 29.3491 36.5686L29.1349 36.5464V36.5419Z" fill="#013366"/>
<path d="M43.1016 36.5644L43.0748 36.5422C43.0302 36.5377 42.9945 36.5333 42.9588 36.5244C42.6242 36.4489 42.4948 36.0489 42.3699 35.7644L40.6476 31.7022C40.6298 31.6533 40.5941 31.5466 40.5272 31.5466C40.4335 31.5466 40.4067 31.6577 40.3844 31.7244L38.738 35.7777C38.68 35.9333 38.5238 36.3022 38.4123 36.4133C38.3275 36.5022 38.2159 36.52 38.0999 36.5289C38.0999 36.5289 38.0062 36.5377 37.9616 36.5422L37.7608 36.5644C37.7073 36.6088 37.7251 36.7333 37.7787 36.7555C37.8947 36.7511 38.0955 36.7422 38.0955 36.7422C38.323 36.7422 38.5461 36.7111 38.7737 36.7111C38.9655 36.7111 39.1529 36.7333 39.3448 36.7377C39.3448 36.7377 39.55 36.7422 39.6616 36.7511C39.7151 36.7289 39.7285 36.6044 39.6794 36.56L39.4652 36.5377C39.4206 36.5377 39.3492 36.5244 39.3492 36.5244C39.1529 36.5022 38.9031 36.4666 38.9031 36.2488C38.9031 36.1022 38.97 35.9333 39.0235 35.8044L39.2779 35.2C39.4072 34.9066 39.3537 34.8755 39.6973 34.8755H40.8573C41.2678 34.8755 41.2054 34.8755 41.3883 35.2889L41.6605 35.9066C41.7051 36.0089 41.7809 36.1911 41.7809 36.3022C41.7809 36.5066 41.5578 36.52 41.3481 36.5377C41.3481 36.5377 41.2767 36.5422 41.2187 36.5466L41.0135 36.56C40.96 36.6089 40.9778 36.7289 41.0313 36.7511C41.1473 36.7466 41.3481 36.7377 41.3481 36.7377C41.5891 36.7289 41.8345 36.7111 42.0709 36.7111C42.3699 36.7111 42.6688 36.7333 42.9678 36.7377C43.0659 36.7377 42.9856 36.7422 43.0972 36.7466C43.1507 36.7244 43.1685 36.6 43.115 36.5555L43.1016 36.5644ZM40.8439 34.6533H39.84C39.8043 34.6533 39.5233 34.6844 39.5233 34.6044C39.5233 34.5822 39.5411 34.5333 39.55 34.5066L40.1524 33.0177C40.1702 32.9777 40.2282 32.7733 40.2996 32.7733C40.3531 32.7733 40.4201 32.9866 40.4379 33.0177L41.0313 34.4089C41.0313 34.4089 41.0938 34.5555 41.0938 34.5911C41.0938 34.68 40.893 34.6533 40.8395 34.6533H40.8439Z" fill="#013366"/>
<path d="M35.2431 11.6133L31.8477 12.8666L32.9185 13.2311L35.2431 11.6133Z" fill="#FCBA19"/>
<path d="M8.14707 11.6578L6.24188 10.96C6.26419 10.9022 6.2865 10.8444 6.30881 10.7866L8.40585 11.5155L8.60663 11.3911L9.61054 11.9333L10.8554 12.3866L10.9312 12.3511L6.48728 10.36C6.51405 10.3022 6.53636 10.2444 6.56313 10.1866L11.4577 12.1333L11.5291 12.0978L6.75945 9.76442C6.78622 9.70664 6.81299 9.65331 6.83976 9.59553L12.0199 11.8489L7.04947 9.1822C7.07624 9.12887 7.10301 9.07998 7.12978 9.03109L14.108 12.7111C14.2062 12.5244 14.3133 12.3422 14.4248 12.1689L8.73602 7.7422L14.8041 11.6222C14.9513 11.4222 15.1119 11.2311 15.277 11.0489L9.43653 5.77776C9.47668 5.73331 9.5213 5.68887 9.56592 5.63998L13.8091 9.37331L9.88717 5.30664C9.93179 5.2622 9.9764 5.21776 10.021 5.16887L14.4471 9.39998L10.3557 4.84442C10.4003 4.80442 10.4449 4.75998 10.494 4.71998L14.456 8.74664L10.842 4.40887C10.8866 4.37331 10.9312 4.33331 10.9758 4.29776L16.0489 10.2933C16.2452 10.1244 16.446 9.96442 16.6602 9.81331L13.0417 3.57331L17.2179 9.44887C17.4455 9.31109 17.6775 9.18664 17.9184 9.07109L14.4962 2.02664C14.5542 1.99553 14.6167 1.96887 14.6747 1.9422L17.209 6.99553L15.0985 1.75109C15.1565 1.72442 15.2146 1.7022 15.2726 1.67553L17.789 7.25776L15.7098 1.5022C15.7678 1.47998 15.8258 1.45776 15.8838 1.43553L18.0478 6.65331L16.33 1.27998C16.3791 1.2622 16.4326 1.24887 16.4817 1.22664L18.9223 8.65776C19.1499 8.5822 19.3774 8.51553 19.6139 8.45776L18.6055 1.32442L20.2698 8.32887C20.5464 8.28442 20.8275 8.25776 21.113 8.23998L20.591 0.457756C20.649 0.457756 20.707 0.448867 20.7695 0.448867L21.3094 6.04442L21.2291 0.435534C21.296 0.435534 21.3584 0.435534 21.4209 0.435534L21.6529 6.32442L21.8849 0.435534C21.9474 0.435534 22.0099 0.435534 22.0723 0.435534L22.0233 6.04442L22.5408 0.457756C22.5988 0.457756 22.6568 0.466645 22.7148 0.466645L22.1839 8.24442C22.456 8.2622 22.7238 8.29331 22.987 8.32887L24.6468 1.34664L23.6429 8.45776C23.8883 8.51553 24.1337 8.59109 24.3702 8.67109L26.8018 1.27109C26.8598 1.29331 26.9178 1.31109 26.9714 1.33331L25.267 6.65331L27.4086 1.48887C27.4666 1.51109 27.5246 1.53331 27.5871 1.55553L25.5258 7.25331L28.0154 1.72887C28.0734 1.75553 28.1359 1.7822 28.1939 1.80887L26.1103 6.98664L28.6133 1.99553C28.6669 2.0222 28.7204 2.04887 28.7739 2.07553L25.3741 9.07553C25.6061 9.18664 25.8336 9.31109 26.0523 9.44442L30.2196 3.58664L26.61 9.80887C26.8241 9.96442 27.0338 10.1289 27.2346 10.3022L32.2631 4.35553C32.3077 4.39553 32.3568 4.43553 32.4014 4.47553L28.8275 8.76887L32.7494 4.78664C32.7985 4.82664 32.8431 4.87109 32.8877 4.91553L28.8364 9.4222L33.2134 5.23553C33.2581 5.27998 33.3027 5.32887 33.3473 5.37331L29.47 9.39109L33.6596 5.7022C33.6998 5.74664 33.7399 5.78664 33.7756 5.83109L27.9931 11.0489C28.1582 11.2311 28.3144 11.4178 28.4616 11.6133L34.5207 7.7422L28.8453 12.16C28.9569 12.3378 29.064 12.52 29.1666 12.7066L36.0645 9.07109C36.0913 9.12442 36.1225 9.17776 36.1493 9.23109L31.2636 11.8533L36.3545 9.63998C36.3813 9.69776 36.4081 9.75553 36.4349 9.81331L31.0272 12.4622L36.6267 10.2311C36.6535 10.2889 36.6803 10.3466 36.7026 10.4089L31.6295 12.6755L36.8721 10.8311C36.8944 10.8844 36.9123 10.9378 36.9346 10.9911L35.8147 11.4044L37.4789 12.6666L37.9385 12.9244C37.7645 12.2222 37.4923 11.3689 37.2335 10.7066C34.7081 4.39998 28.4036 0.0888672 21.5681 0.0888672C13.5548 0.0888672 6.85761 5.69776 5.21121 13.1866C5.21121 13.1866 5.20228 13.24 5.19336 13.28L5.51907 13.1289L8.14707 11.6578Z" fill="#FCBA19"/>
<path d="M122.077 39.8918C121.925 39.8918 121.785 39.8518 121.657 39.7718C121.529 39.6998 121.465 39.5758 121.465 39.3998C121.465 39.2558 121.497 39.1278 121.561 39.0158C121.633 38.9118 121.733 38.8598 121.861 38.8598C121.949 38.8598 122.033 38.8718 122.113 38.8958C122.201 38.9198 122.277 38.9318 122.341 38.9318C122.389 38.9318 122.429 38.9198 122.461 38.8958C122.501 38.8798 122.537 38.8478 122.569 38.7998C122.657 38.6558 122.757 38.4758 122.869 38.2598C122.989 38.0438 123.109 37.7998 123.229 37.5278C123.357 37.2558 123.477 36.9678 123.589 36.6638C123.613 36.5918 123.625 36.4998 123.625 36.3878C123.625 36.3238 123.621 36.2638 123.613 36.2078C123.605 36.1438 123.593 36.0878 123.577 36.0398L122.185 32.5238C122.129 32.3798 122.053 32.2558 121.957 32.1518C121.869 32.0398 121.765 31.9678 121.645 31.9358C121.581 31.9118 121.517 31.8838 121.453 31.8518C121.397 31.8198 121.369 31.7758 121.369 31.7198C121.369 31.6718 121.397 31.6438 121.453 31.6358C121.517 31.6198 121.569 31.6118 121.609 31.6118C121.769 31.6118 121.885 31.6158 121.957 31.6238C122.037 31.6318 122.109 31.6438 122.173 31.6598C122.245 31.6678 122.349 31.6718 122.485 31.6718C122.629 31.6718 122.737 31.6678 122.809 31.6598C122.881 31.6438 122.957 31.6318 123.037 31.6238C123.117 31.6158 123.237 31.6118 123.397 31.6118C123.445 31.6118 123.497 31.6238 123.553 31.6478C123.609 31.6638 123.637 31.6958 123.637 31.7438C123.637 31.7998 123.593 31.8558 123.505 31.9118C123.425 31.9598 123.353 31.9918 123.289 32.0078C123.209 32.0318 123.149 32.0758 123.109 32.1398C123.069 32.1958 123.049 32.2798 123.049 32.3918C123.049 32.4398 123.061 32.4998 123.085 32.5718C123.109 32.6358 123.129 32.6878 123.145 32.7278L124.117 35.1278C124.133 35.1758 124.157 35.1998 124.189 35.1998C124.213 35.1998 124.233 35.1758 124.249 35.1278L125.077 32.9318C125.101 32.8758 125.121 32.8038 125.137 32.7158C125.161 32.6198 125.173 32.5438 125.173 32.4878C125.173 32.3358 125.149 32.2318 125.101 32.1758C125.061 32.1118 125.005 32.0638 124.933 32.0318C124.869 31.9998 124.793 31.9598 124.705 31.9118C124.625 31.8558 124.585 31.7998 124.585 31.7438C124.585 31.6958 124.613 31.6638 124.669 31.6478C124.733 31.6238 124.785 31.6118 124.825 31.6118C124.937 31.6118 125.049 31.6238 125.161 31.6478C125.281 31.6638 125.453 31.6718 125.677 31.6718C125.829 31.6718 125.937 31.6678 126.001 31.6598C126.073 31.6438 126.133 31.6318 126.181 31.6238C126.229 31.6158 126.297 31.6118 126.385 31.6118C126.425 31.6118 126.473 31.6198 126.529 31.6358C126.593 31.6438 126.625 31.6718 126.625 31.7198C126.625 31.7758 126.593 31.8198 126.529 31.8518C126.473 31.8838 126.413 31.9118 126.349 31.9358C126.229 31.9678 126.101 32.0638 125.965 32.2238C125.829 32.3758 125.721 32.5478 125.641 32.7398L124.009 36.6278C124.001 36.6518 123.957 36.7558 123.877 36.9398C123.805 37.1238 123.713 37.3518 123.601 37.6238C123.489 37.8958 123.365 38.1878 123.229 38.4998C123.101 38.8118 122.977 39.1118 122.857 39.3998C122.785 39.5598 122.681 39.6798 122.545 39.7598C122.409 39.8478 122.253 39.8918 122.077 39.8918Z" fill="#013366"/>
<path d="M117.888 36.508C117.808 36.508 117.748 36.496 117.708 36.472C117.668 36.456 117.648 36.424 117.648 36.376C117.648 36.312 117.672 36.272 117.72 36.256C117.768 36.232 117.836 36.208 117.924 36.184C118.076 36.144 118.188 36.088 118.26 36.016C118.34 35.936 118.38 35.84 118.38 35.728V33.148C118.38 32.932 118.348 32.744 118.284 32.584C118.22 32.424 118.088 32.324 117.888 32.284C117.856 32.276 117.828 32.256 117.804 32.224C117.78 32.192 117.768 32.16 117.768 32.128C117.768 32.048 117.804 32 117.876 31.984C118.084 31.92 118.3 31.828 118.524 31.708C118.756 31.58 118.936 31.476 119.064 31.396C119.112 31.364 119.148 31.344 119.172 31.336C119.204 31.32 119.228 31.312 119.244 31.312C119.284 31.312 119.304 31.34 119.304 31.396C119.304 31.42 119.3 31.48 119.292 31.576C119.292 31.672 119.288 31.784 119.28 31.912C119.28 32.04 119.276 32.168 119.268 32.296C119.268 32.312 119.276 32.32 119.292 32.32C119.42 32.16 119.56 32.02 119.712 31.9C119.872 31.78 120.032 31.684 120.192 31.612C120.36 31.54 120.52 31.504 120.672 31.504C120.84 31.504 120.976 31.54 121.08 31.612C121.192 31.684 121.248 31.776 121.248 31.888C121.248 31.968 121.224 32.056 121.176 32.152C121.136 32.248 121.08 32.332 121.008 32.404C120.936 32.476 120.86 32.512 120.78 32.512C120.732 32.512 120.68 32.504 120.624 32.488C120.568 32.464 120.508 32.436 120.444 32.404C120.38 32.38 120.316 32.356 120.252 32.332C120.188 32.308 120.124 32.296 120.06 32.296C119.868 32.296 119.68 32.364 119.496 32.5C119.32 32.636 119.232 32.904 119.232 33.304V35.728C119.232 35.832 119.288 35.92 119.4 35.992C119.512 36.056 119.668 36.12 119.868 36.184C119.956 36.208 120.024 36.232 120.072 36.256C120.12 36.28 120.144 36.32 120.144 36.376C120.144 36.464 120.064 36.508 119.904 36.508C119.664 36.508 119.48 36.496 119.352 36.472C119.232 36.456 119.068 36.448 118.86 36.448C118.724 36.448 118.612 36.452 118.524 36.46C118.444 36.468 118.356 36.476 118.26 36.484C118.172 36.5 118.048 36.508 117.888 36.508Z" fill="#013366"/>
<path d="M115.795 36.64C115.403 36.64 115.095 36.52 114.871 36.28C114.655 36.04 114.547 35.684 114.547 35.212V32.428C114.547 32.364 114.523 32.32 114.475 32.296C114.427 32.264 114.323 32.248 114.163 32.248H114.091C114.051 32.248 114.015 32.224 113.983 32.176C113.959 32.12 113.947 32.064 113.947 32.008C113.947 31.992 113.959 31.968 113.983 31.936C114.007 31.904 114.023 31.884 114.031 31.876C114.191 31.764 114.335 31.652 114.463 31.54C114.599 31.428 114.719 31.32 114.823 31.216C114.935 31.104 115.027 31.004 115.099 30.916C115.139 30.876 115.171 30.844 115.195 30.82C115.227 30.788 115.263 30.772 115.303 30.772C115.343 30.772 115.379 30.78 115.411 30.796C115.451 30.812 115.467 30.848 115.459 30.904L115.399 31.444C115.391 31.532 115.411 31.592 115.459 31.624C115.507 31.656 115.583 31.672 115.687 31.672H117.055C117.087 31.672 117.115 31.7 117.139 31.756C117.163 31.804 117.175 31.864 117.175 31.936C117.175 32.008 117.163 32.08 117.139 32.152C117.115 32.216 117.087 32.248 117.055 32.248H115.867C115.667 32.248 115.535 32.264 115.471 32.296C115.415 32.328 115.387 32.424 115.387 32.584V34.948C115.387 35.268 115.455 35.52 115.591 35.704C115.727 35.888 115.923 35.98 116.179 35.98C116.411 35.98 116.591 35.964 116.719 35.932C116.847 35.892 116.963 35.836 117.067 35.764C117.083 35.748 117.099 35.74 117.115 35.74C117.147 35.74 117.167 35.76 117.175 35.8C117.191 35.832 117.199 35.868 117.199 35.908C117.199 35.948 117.131 36.028 116.995 36.148C116.867 36.268 116.695 36.38 116.479 36.484C116.271 36.588 116.043 36.64 115.795 36.64Z" fill="#013366"/>
<path d="M107.715 36.508C107.643 36.508 107.583 36.496 107.535 36.472C107.495 36.456 107.475 36.424 107.475 36.376C107.475 36.312 107.499 36.272 107.547 36.256C107.595 36.232 107.663 36.208 107.751 36.184C107.871 36.152 107.987 36.108 108.099 36.052C108.211 35.996 108.267 35.888 108.267 35.728V33.148C108.267 32.932 108.243 32.748 108.195 32.596C108.155 32.444 108.031 32.34 107.823 32.284C107.791 32.268 107.763 32.252 107.739 32.236C107.715 32.212 107.703 32.176 107.703 32.128C107.703 32.04 107.739 31.992 107.811 31.984C108.091 31.912 108.319 31.824 108.495 31.72C108.671 31.616 108.843 31.5 109.011 31.372C109.035 31.356 109.055 31.344 109.071 31.336C109.095 31.32 109.119 31.312 109.143 31.312C109.159 31.312 109.171 31.32 109.179 31.336C109.195 31.352 109.203 31.372 109.203 31.396C109.203 31.452 109.191 31.568 109.167 31.744C109.151 31.912 109.143 32.052 109.143 32.164C109.143 32.196 109.143 32.228 109.143 32.26C109.151 32.284 109.159 32.3 109.167 32.308C109.447 32.044 109.743 31.844 110.055 31.708C110.375 31.572 110.723 31.504 111.099 31.504C111.491 31.504 111.815 31.664 112.071 31.984C112.327 32.304 112.455 32.7 112.455 33.172V35.728C112.455 35.888 112.511 35.996 112.623 36.052C112.735 36.1 112.851 36.144 112.971 36.184C113.035 36.208 113.095 36.236 113.151 36.268C113.215 36.292 113.247 36.336 113.247 36.4C113.247 36.448 113.219 36.476 113.163 36.484C113.107 36.5 113.055 36.508 113.007 36.508C112.847 36.508 112.723 36.5 112.635 36.484C112.547 36.476 112.463 36.468 112.383 36.46C112.303 36.452 112.191 36.448 112.047 36.448C111.911 36.448 111.799 36.452 111.711 36.46C111.623 36.468 111.531 36.476 111.435 36.484C111.347 36.5 111.223 36.508 111.063 36.508C111.023 36.508 110.971 36.5 110.907 36.484C110.851 36.476 110.823 36.448 110.823 36.4C110.823 36.336 110.851 36.292 110.907 36.268C110.971 36.236 111.035 36.208 111.099 36.184C111.219 36.144 111.335 36.1 111.447 36.052C111.559 35.996 111.615 35.888 111.615 35.728V33.208C111.615 32.856 111.515 32.584 111.315 32.392C111.123 32.192 110.863 32.088 110.535 32.08C110.247 32.08 109.995 32.128 109.779 32.224C109.563 32.312 109.371 32.424 109.203 32.56C109.171 32.592 109.147 32.636 109.131 32.692C109.115 32.74 109.107 32.788 109.107 32.836V35.728C109.107 35.888 109.163 35.996 109.275 36.052C109.387 36.108 109.503 36.152 109.623 36.184C109.807 36.232 109.899 36.296 109.899 36.376C109.899 36.424 109.879 36.456 109.839 36.472C109.799 36.496 109.739 36.508 109.659 36.508C109.499 36.508 109.371 36.5 109.275 36.484C109.187 36.476 109.103 36.468 109.023 36.46C108.943 36.452 108.831 36.448 108.687 36.448C108.551 36.448 108.439 36.452 108.351 36.46C108.271 36.468 108.183 36.476 108.087 36.484C107.999 36.5 107.875 36.508 107.715 36.508Z" fill="#013366"/>
<path d="M101.205 36.532C101.101 36.532 101.017 36.52 100.953 36.496C100.889 36.48 100.857 36.448 100.857 36.4C100.857 36.304 100.989 36.232 101.253 36.184C101.557 36.128 101.781 36.036 101.925 35.908C102.069 35.78 102.141 35.572 102.141 35.284V29.884C102.141 29.596 102.081 29.392 101.961 29.272C101.849 29.152 101.641 29.064 101.337 29.008C101.201 28.984 101.101 28.952 101.037 28.912C100.973 28.872 100.941 28.824 100.941 28.768C100.941 28.72 100.973 28.688 101.037 28.672C101.101 28.648 101.185 28.636 101.289 28.636C101.593 28.636 101.849 28.64 102.057 28.648C102.273 28.656 102.481 28.664 102.681 28.672C102.889 28.672 103.133 28.672 103.413 28.672C103.677 28.672 103.953 28.672 104.241 28.672C104.537 28.664 104.809 28.66 105.057 28.66C105.329 28.652 105.557 28.648 105.741 28.648C105.933 28.64 106.045 28.636 106.077 28.636C106.117 28.636 106.161 28.644 106.209 28.66C106.257 28.676 106.285 28.704 106.293 28.744C106.333 28.968 106.373 29.192 106.413 29.416C106.453 29.632 106.473 29.82 106.473 29.98C106.473 30.052 106.453 30.1 106.413 30.124C106.381 30.148 106.345 30.16 106.305 30.16C106.265 30.16 106.237 30.152 106.221 30.136C106.205 30.112 106.189 30.08 106.173 30.04C106.133 29.904 106.093 29.776 106.053 29.656C106.013 29.528 105.965 29.436 105.909 29.38C105.797 29.252 105.673 29.168 105.537 29.128C105.401 29.08 105.257 29.056 105.105 29.056H103.533C103.469 29.056 103.381 29.092 103.269 29.164C103.157 29.236 103.101 29.328 103.101 29.44V31.984C103.101 32.056 103.121 32.12 103.161 32.176C103.209 32.224 103.261 32.248 103.317 32.248H104.505C104.737 32.248 104.897 32.208 104.985 32.128C105.073 32.04 105.145 31.884 105.201 31.66C105.249 31.484 105.321 31.396 105.417 31.396C105.449 31.396 105.481 31.412 105.513 31.444C105.553 31.476 105.573 31.524 105.573 31.588C105.573 31.62 105.569 31.692 105.561 31.804C105.561 31.916 105.557 32.032 105.549 32.152C105.541 32.272 105.537 32.364 105.537 32.428C105.537 32.508 105.537 32.616 105.537 32.752C105.545 32.88 105.549 33.004 105.549 33.124C105.557 33.244 105.561 33.32 105.561 33.352C105.561 33.408 105.553 33.456 105.537 33.496C105.529 33.536 105.501 33.556 105.453 33.556C105.333 33.556 105.241 33.428 105.177 33.172C105.129 32.988 105.065 32.852 104.985 32.764C104.905 32.676 104.785 32.632 104.625 32.632H103.509C103.373 32.632 103.269 32.652 103.197 32.692C103.133 32.724 103.101 32.808 103.101 32.944V35.248C103.101 35.552 103.165 35.764 103.293 35.884C103.421 35.996 103.621 36.052 103.893 36.052H104.781C105.037 36.052 105.249 36.04 105.417 36.016C105.593 35.984 105.745 35.928 105.873 35.848C106.001 35.76 106.113 35.644 106.209 35.5C106.313 35.356 106.429 35.164 106.557 34.924C106.581 34.876 106.609 34.836 106.641 34.804C106.673 34.772 106.709 34.76 106.749 34.768C106.789 34.776 106.821 34.796 106.845 34.828C106.869 34.852 106.881 34.888 106.881 34.936C106.881 35.008 106.861 35.136 106.821 35.32C106.781 35.496 106.729 35.68 106.665 35.872C106.609 36.064 106.557 36.216 106.509 36.328C106.485 36.384 106.461 36.432 106.437 36.472C106.421 36.512 106.389 36.532 106.341 36.532C105.957 36.532 105.601 36.528 105.273 36.52C104.945 36.512 104.633 36.504 104.337 36.496C104.041 36.488 103.749 36.48 103.461 36.472C103.181 36.464 102.889 36.46 102.585 36.46C102.409 36.46 102.257 36.464 102.129 36.472C102.001 36.488 101.869 36.5 101.733 36.508C101.597 36.524 101.421 36.532 101.205 36.532Z" fill="#013366"/>
<path d="M94.6221 36.6399C94.4781 36.6399 94.3301 36.5839 94.1781 36.4719C94.0341 36.3599 93.9101 36.2239 93.8061 36.0639C93.7101 35.9039 93.6621 35.7519 93.6621 35.6079C93.6621 35.3519 93.7301 35.1519 93.8661 35.0079C94.0021 34.8639 94.2181 34.7319 94.5141 34.6119L95.7381 34.1079C95.8981 34.0439 95.9901 33.9879 96.0141 33.9399C96.0461 33.8919 96.0661 33.7879 96.0741 33.6279L96.0981 32.8599C96.1061 32.6519 96.0461 32.4719 95.9181 32.3199C95.7981 32.1679 95.6221 32.0919 95.3901 32.0919C95.2701 32.0919 95.1501 32.1119 95.0301 32.1519C94.9101 32.1919 94.8101 32.2439 94.7301 32.3079C94.6821 32.3399 94.6501 32.3879 94.6341 32.4519C94.6181 32.5159 94.6101 32.5839 94.6101 32.6559C94.6101 32.6879 94.6101 32.7239 94.6101 32.7639C94.6181 32.8039 94.6221 32.8399 94.6221 32.8719C94.6221 32.9119 94.5701 32.9679 94.4661 33.0399C94.3701 33.1039 94.2581 33.1639 94.1301 33.2199C94.0101 33.2679 93.9101 33.2919 93.8301 33.2919C93.7901 33.2919 93.7581 33.2839 93.7341 33.2679C93.7101 33.2439 93.6981 33.2159 93.6981 33.1839C93.6981 33.0559 93.7381 32.9199 93.8181 32.7759C93.9061 32.6239 94.0261 32.4839 94.1781 32.3559C94.3621 32.1879 94.5621 32.0399 94.7781 31.9119C94.9941 31.7839 95.2061 31.6839 95.4141 31.6119C95.6221 31.5399 95.8061 31.5039 95.9661 31.5039C96.2541 31.5039 96.4901 31.6079 96.6741 31.8159C96.8661 32.0159 96.9581 32.2679 96.9501 32.5719L96.8901 35.4519C96.8821 35.6199 96.9181 35.7559 96.9981 35.8599C97.0861 35.9639 97.1941 36.0159 97.3221 36.0159C97.5221 36.0159 97.6701 35.9719 97.7661 35.8839C97.8061 35.8439 97.8381 35.8239 97.8621 35.8239C97.9021 35.8239 97.9341 35.8359 97.9581 35.8599C97.9821 35.8839 97.9941 35.9159 97.9941 35.9559C97.9941 36.0439 97.9501 36.1319 97.8621 36.2199C97.7341 36.3479 97.5941 36.4479 97.4421 36.5199C97.2981 36.5999 97.1621 36.6399 97.0341 36.6399C96.6661 36.6399 96.3741 36.4319 96.1581 36.0159H96.1221C95.8581 36.2319 95.6061 36.3879 95.3661 36.4839C95.1261 36.5879 94.8781 36.6399 94.6221 36.6399ZM95.1861 36.0639C95.3461 36.0639 95.4821 36.0399 95.5941 35.9919C95.7061 35.9359 95.8061 35.8639 95.8941 35.7759C95.9341 35.7359 95.9661 35.6839 95.9901 35.6199C96.0221 35.5479 96.0421 35.4359 96.0501 35.2839L96.0741 34.6959C96.0821 34.6079 96.0781 34.5439 96.0621 34.5039C96.0461 34.4639 96.0141 34.4439 95.9661 34.4439C95.9501 34.4439 95.9221 34.4479 95.8821 34.4559C95.8421 34.4639 95.7901 34.4799 95.7261 34.5039C95.3021 34.6559 95.0061 34.8159 94.8381 34.9839C94.6781 35.1439 94.5981 35.2919 94.5981 35.4279C94.5981 35.6359 94.6581 35.7959 94.7781 35.9079C94.9061 36.0119 95.0421 36.0639 95.1861 36.0639Z" fill="#013366"/>
<path d="M91.7132 36.64C91.3212 36.64 91.0132 36.52 90.7892 36.28C90.5732 36.04 90.4652 35.684 90.4652 35.212V32.428C90.4652 32.364 90.4412 32.32 90.3932 32.296C90.3452 32.264 90.2412 32.248 90.0812 32.248H90.0092C89.9692 32.248 89.9332 32.224 89.9012 32.176C89.8772 32.12 89.8652 32.064 89.8652 32.008C89.8652 31.992 89.8772 31.968 89.9012 31.936C89.9252 31.904 89.9412 31.884 89.9492 31.876C90.1092 31.764 90.2532 31.652 90.3812 31.54C90.5172 31.428 90.6372 31.32 90.7412 31.216C90.8532 31.104 90.9452 31.004 91.0172 30.916C91.0572 30.876 91.0892 30.844 91.1132 30.82C91.1452 30.788 91.1812 30.772 91.2212 30.772C91.2612 30.772 91.2972 30.78 91.3292 30.796C91.3692 30.812 91.3852 30.848 91.3772 30.904L91.3172 31.444C91.3092 31.532 91.3292 31.592 91.3772 31.624C91.4252 31.656 91.5012 31.672 91.6052 31.672H92.9732C93.0052 31.672 93.0332 31.7 93.0572 31.756C93.0812 31.804 93.0932 31.864 93.0932 31.936C93.0932 32.008 93.0812 32.08 93.0572 32.152C93.0332 32.216 93.0052 32.248 92.9732 32.248H91.7852C91.5852 32.248 91.4532 32.264 91.3892 32.296C91.3332 32.328 91.3052 32.424 91.3052 32.584V34.948C91.3052 35.268 91.3732 35.52 91.5092 35.704C91.6452 35.888 91.8412 35.98 92.0972 35.98C92.3292 35.98 92.5092 35.964 92.6372 35.932C92.7652 35.892 92.8812 35.836 92.9852 35.764C93.0012 35.748 93.0172 35.74 93.0332 35.74C93.0652 35.74 93.0852 35.76 93.0932 35.8C93.1092 35.832 93.1172 35.868 93.1172 35.908C93.1172 35.948 93.0492 36.028 92.9132 36.148C92.7852 36.268 92.6132 36.38 92.3972 36.484C92.1892 36.588 91.9612 36.64 91.7132 36.64Z" fill="#013366"/>
<path d="M86.0557 36.6399C85.9117 36.6399 85.7637 36.5839 85.6117 36.4719C85.4677 36.3599 85.3437 36.2239 85.2397 36.0639C85.1437 35.9039 85.0957 35.7519 85.0957 35.6079C85.0957 35.3519 85.1637 35.1519 85.2997 35.0079C85.4357 34.8639 85.6517 34.7319 85.9477 34.6119L87.1717 34.1079C87.3317 34.0439 87.4237 33.9879 87.4477 33.9399C87.4797 33.8919 87.4997 33.7879 87.5077 33.6279L87.5317 32.8599C87.5397 32.6519 87.4797 32.4719 87.3517 32.3199C87.2317 32.1679 87.0557 32.0919 86.8237 32.0919C86.7037 32.0919 86.5837 32.1119 86.4637 32.1519C86.3437 32.1919 86.2437 32.2439 86.1637 32.3079C86.1157 32.3399 86.0837 32.3879 86.0677 32.4519C86.0517 32.5159 86.0437 32.5839 86.0437 32.6559C86.0437 32.6879 86.0437 32.7239 86.0437 32.7639C86.0517 32.8039 86.0557 32.8399 86.0557 32.8719C86.0557 32.9119 86.0037 32.9679 85.8997 33.0399C85.8037 33.1039 85.6917 33.1639 85.5637 33.2199C85.4437 33.2679 85.3437 33.2919 85.2637 33.2919C85.2237 33.2919 85.1917 33.2839 85.1677 33.2679C85.1437 33.2439 85.1317 33.2159 85.1317 33.1839C85.1317 33.0559 85.1717 32.9199 85.2517 32.7759C85.3397 32.6239 85.4597 32.4839 85.6117 32.3559C85.7957 32.1879 85.9957 32.0399 86.2117 31.9119C86.4277 31.7839 86.6397 31.6839 86.8477 31.6119C87.0557 31.5399 87.2397 31.5039 87.3997 31.5039C87.6877 31.5039 87.9237 31.6079 88.1077 31.8159C88.2997 32.0159 88.3917 32.2679 88.3837 32.5719L88.3237 35.4519C88.3157 35.6199 88.3517 35.7559 88.4317 35.8599C88.5197 35.9639 88.6277 36.0159 88.7557 36.0159C88.9557 36.0159 89.1037 35.9719 89.1997 35.8839C89.2397 35.8439 89.2717 35.8239 89.2957 35.8239C89.3357 35.8239 89.3677 35.8359 89.3917 35.8599C89.4157 35.8839 89.4277 35.9159 89.4277 35.9559C89.4277 36.0439 89.3837 36.1319 89.2957 36.2199C89.1677 36.3479 89.0277 36.4479 88.8757 36.5199C88.7317 36.5999 88.5957 36.6399 88.4677 36.6399C88.0997 36.6399 87.8077 36.4319 87.5917 36.0159H87.5557C87.2917 36.2319 87.0397 36.3879 86.7997 36.4839C86.5597 36.5879 86.3117 36.6399 86.0557 36.6399ZM86.6197 36.0639C86.7797 36.0639 86.9157 36.0399 87.0277 35.9919C87.1397 35.9359 87.2397 35.8639 87.3277 35.7759C87.3677 35.7359 87.3997 35.6839 87.4237 35.6199C87.4557 35.5479 87.4757 35.4359 87.4837 35.2839L87.5077 34.6959C87.5157 34.6079 87.5117 34.5439 87.4957 34.5039C87.4797 34.4639 87.4477 34.4439 87.3997 34.4439C87.3837 34.4439 87.3557 34.4479 87.3157 34.4559C87.2757 34.4639 87.2237 34.4799 87.1597 34.5039C86.7357 34.6559 86.4397 34.8159 86.2717 34.9839C86.1117 35.1439 86.0317 35.2919 86.0317 35.4279C86.0317 35.6359 86.0917 35.7959 86.2117 35.9079C86.3397 36.0119 86.4757 36.0639 86.6197 36.0639Z" fill="#013366"/>
<path d="M80.0571 36.556C79.9771 36.556 79.7971 36.548 79.5171 36.532C79.2451 36.516 78.9291 36.5 78.5691 36.484C78.2171 36.476 77.8811 36.472 77.5611 36.472C77.4011 36.472 77.2651 36.476 77.1531 36.484C77.0491 36.492 76.9331 36.5 76.8051 36.508C76.6851 36.524 76.5171 36.532 76.3011 36.532C76.1971 36.532 76.1131 36.52 76.0491 36.496C75.9851 36.472 75.9531 36.432 75.9531 36.376C75.9531 36.312 75.9851 36.272 76.0491 36.256C76.1131 36.232 76.2131 36.208 76.3491 36.184C76.6531 36.128 76.8611 36.036 76.9731 35.908C77.0931 35.78 77.1531 35.572 77.1531 35.284V29.884C77.1531 29.596 77.0931 29.392 76.9731 29.272C76.8611 29.152 76.6531 29.064 76.3491 29.008C76.2131 28.984 76.1131 28.96 76.0491 28.936C75.9851 28.904 75.9531 28.856 75.9531 28.792C75.9531 28.736 75.9851 28.696 76.0491 28.672C76.1131 28.648 76.1971 28.636 76.3011 28.636C76.5091 28.636 76.6731 28.64 76.7931 28.648C76.9211 28.648 77.0451 28.652 77.1651 28.66C77.2851 28.66 77.4411 28.66 77.6331 28.66C77.7611 28.66 77.9211 28.656 78.1131 28.648C78.3131 28.64 78.5171 28.628 78.7251 28.612C78.9411 28.596 79.1331 28.584 79.3011 28.576C79.4771 28.568 79.6051 28.564 79.6851 28.564C80.5011 28.564 81.1971 28.664 81.7731 28.864C82.3491 29.056 82.8171 29.328 83.1771 29.68C83.5371 30.024 83.8011 30.428 83.9691 30.892C84.1451 31.348 84.2331 31.84 84.2331 32.368C84.2331 32.944 84.1251 33.484 83.9091 33.988C83.6931 34.492 83.3931 34.94 83.0091 35.332C82.6251 35.716 82.1811 36.016 81.6771 36.232C81.1731 36.448 80.6331 36.556 80.0571 36.556ZM79.9131 36.136C80.5371 36.136 81.0891 35.984 81.5691 35.68C82.0491 35.376 82.4211 34.956 82.6851 34.42C82.9571 33.884 83.0931 33.268 83.0931 32.572C83.0931 31.996 82.9971 31.484 82.8051 31.036C82.6131 30.58 82.3571 30.2 82.0371 29.896C81.7171 29.584 81.3571 29.348 80.9571 29.188C80.5571 29.02 80.1531 28.936 79.7451 28.936C79.4011 28.936 79.1051 28.948 78.8571 28.972C78.6171 28.988 78.4331 29.048 78.3051 29.152C78.1771 29.256 78.1131 29.428 78.1131 29.668V35.02C78.1131 35.34 78.2011 35.58 78.3771 35.74C78.5531 35.9 78.7771 36.008 79.0491 36.064C79.3291 36.112 79.6171 36.136 79.9131 36.136Z" fill="#013366"/>
<path d="M71.4167 36.6999C71.4007 36.6999 71.3727 36.6839 71.3327 36.6519C71.3007 36.6199 71.2847 36.5959 71.2847 36.5799C71.2847 36.4999 71.2927 36.3879 71.3087 36.2439C71.3327 36.0919 71.3447 35.9639 71.3447 35.8599V35.7879C71.2247 35.9719 71.0327 36.1599 70.7687 36.3519C70.5047 36.5439 70.1727 36.6399 69.7727 36.6399C69.3167 36.6399 68.9207 36.5199 68.5847 36.2799C68.2567 36.0399 68.0007 35.7319 67.8167 35.3559C67.6407 34.9799 67.5527 34.5919 67.5527 34.1919C67.5527 33.7279 67.6607 33.2919 67.8767 32.8839C68.0927 32.4759 68.4007 32.1439 68.8007 31.8879C69.2087 31.6319 69.6927 31.5039 70.2527 31.5039C70.4127 31.5039 70.5727 31.5199 70.7327 31.5519C70.9007 31.5759 71.0287 31.6039 71.1167 31.6359C71.1887 31.6599 71.2407 31.6719 71.2727 31.6719C71.3287 31.6719 71.3567 31.5759 71.3567 31.3839V29.6799C71.3567 29.3519 71.3047 29.1319 71.2007 29.0199C71.0967 28.9079 70.9487 28.8359 70.7567 28.8039C70.6847 28.7879 70.6487 28.7359 70.6487 28.6479C70.6487 28.5759 70.6807 28.5279 70.7447 28.5039C71.0967 28.4159 71.3727 28.3319 71.5727 28.2519C71.7727 28.1719 71.9287 28.1079 72.0407 28.0599C72.0727 28.0439 72.1007 28.0359 72.1247 28.0359C72.1567 28.0279 72.1807 28.0239 72.1967 28.0239C72.2447 28.0239 72.2727 28.0479 72.2807 28.0959C72.2807 28.1439 72.2727 28.2279 72.2567 28.3479C72.2487 28.4599 72.2367 28.6279 72.2207 28.8519C72.2047 29.0759 72.1967 29.3679 72.1967 29.7279V35.1519C72.1967 35.4239 72.2167 35.6239 72.2567 35.7519C72.2967 35.8719 72.3607 35.9319 72.4487 35.9319C72.4887 35.9319 72.5567 35.9279 72.6527 35.9199C72.7567 35.9119 72.8607 35.9039 72.9647 35.8959C73.1087 35.8879 73.1807 35.9239 73.1807 36.0039C73.1807 36.0599 73.1607 36.1119 73.1207 36.1599C73.0887 36.1999 73.0527 36.2199 73.0127 36.2199C72.7887 36.2519 72.5687 36.2999 72.3527 36.3639C72.1367 36.4199 71.8887 36.5079 71.6087 36.6279C71.5447 36.6599 71.5007 36.6799 71.4767 36.6879C71.4607 36.6959 71.4407 36.6999 71.4167 36.6999ZM70.2047 36.0159C70.4127 36.0159 70.6167 35.9639 70.8167 35.8599C71.0167 35.7479 71.1927 35.6039 71.3447 35.4279L71.3567 33.2679C71.3567 33.0519 71.2927 32.8399 71.1647 32.6319C71.0447 32.4239 70.8727 32.2559 70.6487 32.1279C70.4327 31.9919 70.1767 31.9239 69.8807 31.9239C69.6967 31.9239 69.4887 31.9799 69.2567 32.0919C69.0247 32.2039 68.8247 32.4039 68.6567 32.6919C68.4887 32.9719 68.4047 33.3799 68.4047 33.9159C68.4047 34.3719 68.4727 34.7399 68.6087 35.0199C68.7447 35.2919 68.9087 35.4999 69.1007 35.6439C69.3007 35.7879 69.5007 35.8879 69.7007 35.9439C69.9087 35.9919 70.0767 36.0159 70.2047 36.0159Z" fill="#013366"/>
<path d="M61.3201 36.508C61.2481 36.508 61.1881 36.496 61.1401 36.472C61.1001 36.456 61.0801 36.424 61.0801 36.376C61.0801 36.312 61.1041 36.272 61.1521 36.256C61.2001 36.232 61.2681 36.208 61.3561 36.184C61.4761 36.152 61.5921 36.108 61.7041 36.052C61.8161 35.996 61.8721 35.888 61.8721 35.728V33.148C61.8721 32.932 61.8481 32.748 61.8001 32.596C61.7601 32.444 61.6361 32.34 61.4281 32.284C61.3961 32.268 61.3681 32.252 61.3441 32.236C61.3201 32.212 61.3081 32.176 61.3081 32.128C61.3081 32.04 61.3441 31.992 61.4161 31.984C61.6961 31.912 61.9241 31.824 62.1001 31.72C62.2761 31.616 62.4481 31.5 62.6161 31.372C62.6401 31.356 62.6601 31.344 62.6761 31.336C62.7001 31.32 62.7241 31.312 62.7481 31.312C62.7641 31.312 62.7761 31.32 62.7841 31.336C62.8001 31.352 62.8081 31.372 62.8081 31.396C62.8081 31.452 62.7961 31.568 62.7721 31.744C62.7561 31.912 62.7481 32.052 62.7481 32.164C62.7481 32.196 62.7481 32.228 62.7481 32.26C62.7561 32.284 62.7641 32.3 62.7721 32.308C63.0521 32.044 63.3481 31.844 63.6601 31.708C63.9801 31.572 64.3281 31.504 64.7041 31.504C65.0961 31.504 65.4201 31.664 65.6761 31.984C65.9321 32.304 66.0601 32.7 66.0601 33.172V35.728C66.0601 35.888 66.1161 35.996 66.2281 36.052C66.3401 36.1 66.4561 36.144 66.5761 36.184C66.6401 36.208 66.7001 36.236 66.7561 36.268C66.8201 36.292 66.8521 36.336 66.8521 36.4C66.8521 36.448 66.8241 36.476 66.7681 36.484C66.7121 36.5 66.6601 36.508 66.6121 36.508C66.4521 36.508 66.3281 36.5 66.2401 36.484C66.1521 36.476 66.0681 36.468 65.9881 36.46C65.9081 36.452 65.7961 36.448 65.6521 36.448C65.5161 36.448 65.4041 36.452 65.3161 36.46C65.2281 36.468 65.1361 36.476 65.0401 36.484C64.9521 36.5 64.8281 36.508 64.6681 36.508C64.6281 36.508 64.5761 36.5 64.5121 36.484C64.4561 36.476 64.4281 36.448 64.4281 36.4C64.4281 36.336 64.4561 36.292 64.5121 36.268C64.5761 36.236 64.6401 36.208 64.7041 36.184C64.8241 36.144 64.9401 36.1 65.0521 36.052C65.1641 35.996 65.2201 35.888 65.2201 35.728V33.208C65.2201 32.856 65.1201 32.584 64.9201 32.392C64.7281 32.192 64.4681 32.088 64.1401 32.08C63.8521 32.08 63.6001 32.128 63.3841 32.224C63.1681 32.312 62.9761 32.424 62.8081 32.56C62.7761 32.592 62.7521 32.636 62.7361 32.692C62.7201 32.74 62.7121 32.788 62.7121 32.836V35.728C62.7121 35.888 62.7681 35.996 62.8801 36.052C62.9921 36.108 63.1081 36.152 63.2281 36.184C63.4121 36.232 63.5041 36.296 63.5041 36.376C63.5041 36.424 63.4841 36.456 63.4441 36.472C63.4041 36.496 63.3441 36.508 63.2641 36.508C63.1041 36.508 62.9761 36.5 62.8801 36.484C62.7921 36.476 62.7081 36.468 62.6281 36.46C62.5481 36.452 62.4361 36.448 62.2921 36.448C62.1561 36.448 62.0441 36.452 61.9561 36.46C61.8761 36.468 61.7881 36.476 61.6921 36.484C61.6041 36.5 61.4801 36.508 61.3201 36.508Z" fill="#013366"/>
<path d="M57.4034 36.6399C57.2594 36.6399 57.1114 36.5839 56.9594 36.4719C56.8154 36.3599 56.6914 36.2239 56.5874 36.0639C56.4914 35.9039 56.4434 35.7519 56.4434 35.6079C56.4434 35.3519 56.5114 35.1519 56.6474 35.0079C56.7834 34.8639 56.9994 34.7319 57.2954 34.6119L58.5194 34.1079C58.6794 34.0439 58.7714 33.9879 58.7954 33.9399C58.8274 33.8919 58.8474 33.7879 58.8554 33.6279L58.8794 32.8599C58.8874 32.6519 58.8274 32.4719 58.6994 32.3199C58.5794 32.1679 58.4034 32.0919 58.1714 32.0919C58.0514 32.0919 57.9314 32.1119 57.8114 32.1519C57.6914 32.1919 57.5914 32.2439 57.5114 32.3079C57.4634 32.3399 57.4314 32.3879 57.4154 32.4519C57.3994 32.5159 57.3914 32.5839 57.3914 32.6559C57.3914 32.6879 57.3914 32.7239 57.3914 32.7639C57.3994 32.8039 57.4034 32.8399 57.4034 32.8719C57.4034 32.9119 57.3514 32.9679 57.2474 33.0399C57.1514 33.1039 57.0394 33.1639 56.9114 33.2199C56.7914 33.2679 56.6914 33.2919 56.6114 33.2919C56.5714 33.2919 56.5394 33.2839 56.5154 33.2679C56.4914 33.2439 56.4794 33.2159 56.4794 33.1839C56.4794 33.0559 56.5194 32.9199 56.5994 32.7759C56.6874 32.6239 56.8074 32.4839 56.9594 32.3559C57.1434 32.1879 57.3434 32.0399 57.5594 31.9119C57.7754 31.7839 57.9874 31.6839 58.1954 31.6119C58.4034 31.5399 58.5874 31.5039 58.7474 31.5039C59.0354 31.5039 59.2714 31.6079 59.4554 31.8159C59.6474 32.0159 59.7394 32.2679 59.7314 32.5719L59.6714 35.4519C59.6634 35.6199 59.6994 35.7559 59.7794 35.8599C59.8674 35.9639 59.9754 36.0159 60.1034 36.0159C60.3034 36.0159 60.4514 35.9719 60.5474 35.8839C60.5874 35.8439 60.6194 35.8239 60.6434 35.8239C60.6834 35.8239 60.7154 35.8359 60.7394 35.8599C60.7634 35.8839 60.7754 35.9159 60.7754 35.9559C60.7754 36.0439 60.7314 36.1319 60.6434 36.2199C60.5154 36.3479 60.3754 36.4479 60.2234 36.5199C60.0794 36.5999 59.9434 36.6399 59.8154 36.6399C59.4474 36.6399 59.1554 36.4319 58.9394 36.0159H58.9034C58.6394 36.2319 58.3874 36.3879 58.1474 36.4839C57.9074 36.5879 57.6594 36.6399 57.4034 36.6399ZM57.9674 36.0639C58.1274 36.0639 58.2634 36.0399 58.3754 35.9919C58.4874 35.9359 58.5874 35.8639 58.6754 35.7759C58.7154 35.7359 58.7474 35.6839 58.7714 35.6199C58.8034 35.5479 58.8234 35.4359 58.8314 35.2839L58.8554 34.6959C58.8634 34.6079 58.8594 34.5439 58.8434 34.5039C58.8274 34.4639 58.7954 34.4439 58.7474 34.4439C58.7314 34.4439 58.7034 34.4479 58.6634 34.4559C58.6234 34.4639 58.5714 34.4799 58.5074 34.5039C58.0834 34.6559 57.7874 34.8159 57.6194 34.9839C57.4594 35.1439 57.3794 35.2919 57.3794 35.4279C57.3794 35.6359 57.4394 35.7959 57.5594 35.9079C57.6874 36.0119 57.8234 36.0639 57.9674 36.0639Z" fill="#013366"/>
<path d="M138.875 23.508C138.803 23.508 138.743 23.496 138.695 23.472C138.655 23.456 138.635 23.424 138.635 23.376C138.635 23.312 138.659 23.272 138.707 23.256C138.755 23.232 138.823 23.208 138.911 23.184C139.031 23.152 139.147 23.108 139.259 23.052C139.371 22.996 139.427 22.888 139.427 22.728V20.148C139.427 19.932 139.403 19.748 139.355 19.596C139.315 19.444 139.191 19.34 138.983 19.284C138.951 19.268 138.923 19.252 138.899 19.236C138.875 19.212 138.863 19.176 138.863 19.128C138.863 19.04 138.899 18.992 138.971 18.984C139.251 18.912 139.479 18.824 139.655 18.72C139.831 18.616 140.003 18.5 140.171 18.372C140.195 18.356 140.215 18.344 140.231 18.336C140.255 18.32 140.279 18.312 140.303 18.312C140.319 18.312 140.331 18.32 140.339 18.336C140.355 18.352 140.363 18.372 140.363 18.396C140.363 18.452 140.351 18.568 140.327 18.744C140.311 18.912 140.303 19.052 140.303 19.164C140.303 19.196 140.303 19.228 140.303 19.26C140.311 19.284 140.319 19.3 140.327 19.308C140.607 19.044 140.903 18.844 141.215 18.708C141.535 18.572 141.883 18.504 142.259 18.504C142.651 18.504 142.975 18.664 143.231 18.984C143.487 19.304 143.615 19.7 143.615 20.172V22.728C143.615 22.888 143.671 22.996 143.783 23.052C143.895 23.1 144.011 23.144 144.131 23.184C144.195 23.208 144.255 23.236 144.311 23.268C144.375 23.292 144.407 23.336 144.407 23.4C144.407 23.448 144.379 23.476 144.323 23.484C144.267 23.5 144.215 23.508 144.167 23.508C144.007 23.508 143.883 23.5 143.795 23.484C143.707 23.476 143.623 23.468 143.543 23.46C143.463 23.452 143.351 23.448 143.207 23.448C143.071 23.448 142.959 23.452 142.871 23.46C142.783 23.468 142.691 23.476 142.595 23.484C142.507 23.5 142.383 23.508 142.223 23.508C142.183 23.508 142.131 23.5 142.067 23.484C142.011 23.476 141.983 23.448 141.983 23.4C141.983 23.336 142.011 23.292 142.067 23.268C142.131 23.236 142.195 23.208 142.259 23.184C142.379 23.144 142.495 23.1 142.607 23.052C142.719 22.996 142.775 22.888 142.775 22.728V20.208C142.775 19.856 142.675 19.584 142.475 19.392C142.283 19.192 142.023 19.088 141.695 19.08C141.407 19.08 141.155 19.128 140.939 19.224C140.723 19.312 140.531 19.424 140.363 19.56C140.331 19.592 140.307 19.636 140.291 19.692C140.275 19.74 140.267 19.788 140.267 19.836V22.728C140.267 22.888 140.323 22.996 140.435 23.052C140.547 23.108 140.663 23.152 140.783 23.184C140.967 23.232 141.059 23.296 141.059 23.376C141.059 23.424 141.039 23.456 140.999 23.472C140.959 23.496 140.899 23.508 140.819 23.508C140.659 23.508 140.531 23.5 140.435 23.484C140.347 23.476 140.263 23.468 140.183 23.46C140.103 23.452 139.991 23.448 139.847 23.448C139.711 23.448 139.599 23.452 139.511 23.46C139.431 23.468 139.343 23.476 139.247 23.484C139.159 23.5 139.035 23.508 138.875 23.508Z" fill="#013366"/>
<path d="M135.214 23.6399C134.766 23.6399 134.362 23.5359 134.002 23.3279C133.642 23.1199 133.354 22.8359 133.138 22.4759C132.93 22.1079 132.826 21.6919 132.826 21.2279C132.826 20.8919 132.89 20.5639 133.018 20.2439C133.154 19.9239 133.342 19.6319 133.582 19.3679C133.822 19.1039 134.102 18.8959 134.422 18.7439C134.742 18.5839 135.086 18.5039 135.454 18.5039C135.918 18.5039 136.334 18.6159 136.702 18.8399C137.078 19.0639 137.374 19.3599 137.59 19.7279C137.814 20.0879 137.926 20.4839 137.926 20.9159C137.926 21.3799 137.822 21.8199 137.614 22.2359C137.414 22.6519 137.114 22.9919 136.714 23.2559C136.314 23.5119 135.814 23.6399 135.214 23.6399ZM135.466 23.2799C135.738 23.2799 135.982 23.2279 136.198 23.1239C136.414 23.0199 136.582 22.8519 136.702 22.6199C136.798 22.4359 136.862 22.2119 136.894 21.9479C136.926 21.6839 136.942 21.4359 136.942 21.2039C136.942 20.8199 136.87 20.4519 136.726 20.0999C136.59 19.7399 136.394 19.4479 136.138 19.2239C135.89 18.9919 135.594 18.8759 135.25 18.8759C135.034 18.8759 134.838 18.9119 134.662 18.9839C134.494 19.0479 134.338 19.1719 134.194 19.3559C134.034 19.5559 133.93 19.7999 133.882 20.0879C133.834 20.3759 133.81 20.6639 133.81 20.9519C133.81 21.3439 133.882 21.7199 134.026 22.0799C134.17 22.4319 134.366 22.7199 134.614 22.9439C134.862 23.1679 135.146 23.2799 135.466 23.2799Z" fill="#013366"/>
<path d="M129.992 23.5079C129.92 23.5079 129.86 23.4959 129.812 23.4719C129.772 23.4559 129.752 23.4239 129.752 23.3759C129.752 23.3119 129.78 23.2679 129.836 23.2439C129.9 23.2199 129.964 23.1999 130.028 23.1839C130.196 23.1439 130.324 23.0959 130.412 23.0399C130.5 22.9759 130.544 22.8719 130.544 22.7279V20.1239C130.544 19.9079 130.504 19.7159 130.424 19.5479C130.352 19.3799 130.212 19.2799 130.004 19.2479C129.964 19.2399 129.932 19.2239 129.908 19.1999C129.892 19.1759 129.884 19.1399 129.884 19.0919C129.884 19.0039 129.92 18.9559 129.992 18.9479C130.312 18.8759 130.576 18.7799 130.784 18.6599C130.992 18.5319 131.148 18.4279 131.252 18.3479C131.324 18.2919 131.38 18.2639 131.42 18.2639C131.468 18.2639 131.492 18.2839 131.492 18.3239C131.492 18.3879 131.48 18.5159 131.456 18.7079C131.44 18.8919 131.424 19.0999 131.408 19.3319C131.392 19.5559 131.384 19.7599 131.384 19.9439V22.7279C131.384 22.8639 131.428 22.9639 131.516 23.0279C131.612 23.0919 131.74 23.1439 131.9 23.1839C131.964 23.1999 132.024 23.2199 132.08 23.2439C132.144 23.2679 132.176 23.3119 132.176 23.3759C132.176 23.4639 132.096 23.5079 131.936 23.5079C131.784 23.5079 131.66 23.4999 131.564 23.4839C131.476 23.4759 131.388 23.4679 131.3 23.4599C131.22 23.4519 131.108 23.4479 130.964 23.4479C130.828 23.4479 130.716 23.4519 130.628 23.4599C130.54 23.4679 130.452 23.4759 130.364 23.4839C130.276 23.4999 130.152 23.5079 129.992 23.5079ZM130.952 17.2799C130.784 17.2799 130.64 17.2239 130.52 17.1119C130.408 16.9919 130.352 16.8479 130.352 16.6799C130.352 16.5039 130.408 16.3599 130.52 16.2479C130.64 16.1279 130.784 16.0679 130.952 16.0679C131.128 16.0679 131.272 16.1279 131.384 16.2479C131.504 16.3599 131.564 16.5039 131.564 16.6799C131.564 16.8479 131.504 16.9919 131.384 17.1119C131.272 17.2239 131.128 17.2799 130.952 17.2799Z" fill="#013366"/>
<path d="M127.959 23.64C127.567 23.64 127.259 23.52 127.035 23.28C126.819 23.04 126.711 22.684 126.711 22.212V19.428C126.711 19.364 126.687 19.32 126.639 19.296C126.591 19.264 126.487 19.248 126.327 19.248H126.255C126.215 19.248 126.179 19.224 126.147 19.176C126.123 19.12 126.111 19.064 126.111 19.008C126.111 18.992 126.123 18.968 126.147 18.936C126.171 18.904 126.187 18.884 126.195 18.876C126.355 18.764 126.499 18.652 126.627 18.54C126.763 18.428 126.883 18.32 126.987 18.216C127.099 18.104 127.191 18.004 127.263 17.916C127.303 17.876 127.335 17.844 127.359 17.82C127.391 17.788 127.427 17.772 127.467 17.772C127.507 17.772 127.543 17.78 127.575 17.796C127.615 17.812 127.631 17.848 127.623 17.904L127.563 18.444C127.555 18.532 127.575 18.592 127.623 18.624C127.671 18.656 127.747 18.672 127.851 18.672H129.219C129.251 18.672 129.279 18.7 129.303 18.756C129.327 18.804 129.339 18.864 129.339 18.936C129.339 19.008 129.327 19.08 129.303 19.152C129.279 19.216 129.251 19.248 129.219 19.248H128.031C127.831 19.248 127.699 19.264 127.635 19.296C127.579 19.328 127.551 19.424 127.551 19.584V21.948C127.551 22.268 127.619 22.52 127.755 22.704C127.891 22.888 128.087 22.98 128.343 22.98C128.575 22.98 128.755 22.964 128.883 22.932C129.011 22.892 129.127 22.836 129.231 22.764C129.247 22.748 129.263 22.74 129.279 22.74C129.311 22.74 129.331 22.76 129.339 22.8C129.355 22.832 129.363 22.868 129.363 22.908C129.363 22.948 129.295 23.028 129.159 23.148C129.031 23.268 128.859 23.38 128.643 23.484C128.435 23.588 128.207 23.64 127.959 23.64Z" fill="#013366"/>
<path d="M122.302 23.6399C122.158 23.6399 122.01 23.5839 121.858 23.4719C121.714 23.3599 121.59 23.2239 121.486 23.0639C121.39 22.9039 121.342 22.7519 121.342 22.6079C121.342 22.3519 121.41 22.1519 121.546 22.0079C121.682 21.8639 121.898 21.7319 122.194 21.6119L123.418 21.1079C123.578 21.0439 123.67 20.9879 123.694 20.9399C123.726 20.8919 123.746 20.7879 123.754 20.6279L123.778 19.8599C123.786 19.6519 123.726 19.4719 123.598 19.3199C123.478 19.1679 123.302 19.0919 123.07 19.0919C122.95 19.0919 122.83 19.1119 122.71 19.1519C122.59 19.1919 122.49 19.2439 122.41 19.3079C122.362 19.3399 122.33 19.3879 122.314 19.4519C122.298 19.5159 122.29 19.5839 122.29 19.6559C122.29 19.6879 122.29 19.7239 122.29 19.7639C122.298 19.8039 122.302 19.8399 122.302 19.8719C122.302 19.9119 122.25 19.9679 122.146 20.0399C122.05 20.1039 121.938 20.1639 121.81 20.2199C121.69 20.2679 121.59 20.2919 121.51 20.2919C121.47 20.2919 121.438 20.2839 121.414 20.2679C121.39 20.2439 121.378 20.2159 121.378 20.1839C121.378 20.0559 121.418 19.9199 121.498 19.7759C121.586 19.6239 121.706 19.4839 121.858 19.3559C122.042 19.1879 122.242 19.0399 122.458 18.9119C122.674 18.7839 122.886 18.6839 123.094 18.6119C123.302 18.5399 123.486 18.5039 123.646 18.5039C123.934 18.5039 124.17 18.6079 124.354 18.8159C124.546 19.0159 124.638 19.2679 124.63 19.5719L124.57 22.4519C124.562 22.6199 124.598 22.7559 124.678 22.8599C124.766 22.9639 124.874 23.0159 125.002 23.0159C125.202 23.0159 125.35 22.9719 125.446 22.8839C125.486 22.8439 125.518 22.8239 125.542 22.8239C125.582 22.8239 125.614 22.8359 125.638 22.8599C125.662 22.8839 125.674 22.9159 125.674 22.9559C125.674 23.0439 125.63 23.1319 125.542 23.2199C125.414 23.3479 125.274 23.4479 125.122 23.5199C124.978 23.5999 124.842 23.6399 124.714 23.6399C124.346 23.6399 124.054 23.4319 123.838 23.0159H123.802C123.538 23.2319 123.286 23.3879 123.046 23.4839C122.806 23.5879 122.558 23.6399 122.302 23.6399ZM122.866 23.0639C123.026 23.0639 123.162 23.0399 123.274 22.9919C123.386 22.9359 123.486 22.8639 123.574 22.7759C123.614 22.7359 123.646 22.6839 123.67 22.6199C123.702 22.5479 123.722 22.4359 123.73 22.2839L123.754 21.6959C123.762 21.6079 123.758 21.5439 123.742 21.5039C123.726 21.4639 123.694 21.4439 123.646 21.4439C123.63 21.4439 123.602 21.4479 123.562 21.4559C123.522 21.4639 123.47 21.4799 123.406 21.5039C122.982 21.6559 122.686 21.8159 122.518 21.9839C122.358 22.1439 122.278 22.2919 122.278 22.4279C122.278 22.6359 122.338 22.7959 122.458 22.9079C122.586 23.0119 122.722 23.0639 122.866 23.0639Z" fill="#013366"/>
<path d="M112.086 23.508C112.022 23.508 111.966 23.5 111.918 23.484C111.87 23.468 111.846 23.432 111.846 23.376C111.846 23.32 111.87 23.28 111.918 23.256C111.974 23.232 112.042 23.208 112.122 23.184C112.234 23.144 112.346 23.1 112.458 23.052C112.578 22.996 112.638 22.888 112.638 22.728V20.148C112.638 19.932 112.614 19.744 112.566 19.584C112.518 19.416 112.39 19.316 112.182 19.284C112.15 19.276 112.122 19.26 112.098 19.236C112.082 19.212 112.074 19.176 112.074 19.128C112.074 19.048 112.106 19 112.17 18.984C112.386 18.928 112.558 18.872 112.686 18.816C112.814 18.752 112.926 18.684 113.022 18.612C113.126 18.532 113.25 18.448 113.394 18.36C113.41 18.352 113.426 18.344 113.442 18.336C113.458 18.32 113.478 18.312 113.502 18.312C113.55 18.312 113.574 18.34 113.574 18.396C113.574 18.452 113.562 18.568 113.538 18.744C113.522 18.912 113.514 19.052 113.514 19.164C113.514 19.244 113.522 19.292 113.538 19.308H113.562C113.746 19.132 113.986 18.956 114.282 18.78C114.586 18.596 114.97 18.504 115.434 18.504C115.722 18.504 115.962 18.568 116.154 18.696C116.346 18.816 116.506 19.028 116.634 19.332H116.67C116.926 19.1 117.218 18.904 117.546 18.744C117.874 18.584 118.234 18.504 118.626 18.504C118.89 18.504 119.11 18.584 119.286 18.744C119.462 18.904 119.594 19.112 119.682 19.368C119.778 19.624 119.826 19.892 119.826 20.172V22.728C119.826 22.888 119.882 22.996 119.994 23.052C120.106 23.1 120.222 23.144 120.342 23.184C120.422 23.208 120.486 23.232 120.534 23.256C120.59 23.28 120.618 23.32 120.618 23.376C120.618 23.424 120.598 23.456 120.558 23.472C120.526 23.496 120.466 23.508 120.378 23.508C120.218 23.508 120.094 23.5 120.006 23.484C119.918 23.476 119.834 23.468 119.754 23.46C119.682 23.452 119.574 23.448 119.43 23.448C119.294 23.448 119.182 23.452 119.094 23.46C119.006 23.468 118.914 23.476 118.818 23.484C118.722 23.5 118.594 23.508 118.434 23.508C118.362 23.508 118.302 23.496 118.254 23.472C118.214 23.456 118.194 23.424 118.194 23.376C118.194 23.312 118.218 23.268 118.266 23.244C118.322 23.22 118.39 23.2 118.47 23.184C118.598 23.152 118.714 23.108 118.818 23.052C118.93 22.996 118.986 22.888 118.986 22.728V20.208C118.986 20.016 118.942 19.836 118.854 19.668C118.766 19.492 118.65 19.348 118.506 19.236C118.362 19.124 118.202 19.068 118.026 19.068C117.826 19.068 117.638 19.092 117.462 19.14C117.294 19.188 117.134 19.272 116.982 19.392C116.758 19.568 116.646 19.856 116.646 20.256V22.728C116.646 22.888 116.706 22.996 116.826 23.052C116.946 23.108 117.066 23.152 117.186 23.184C117.266 23.2 117.33 23.224 117.378 23.256C117.434 23.28 117.462 23.32 117.462 23.376C117.462 23.424 117.442 23.456 117.402 23.472C117.362 23.496 117.302 23.508 117.222 23.508C117.062 23.508 116.934 23.5 116.838 23.484C116.75 23.476 116.662 23.468 116.574 23.46C116.494 23.452 116.382 23.448 116.238 23.448C116.102 23.448 115.99 23.452 115.902 23.46C115.814 23.468 115.722 23.476 115.626 23.484C115.53 23.5 115.402 23.508 115.242 23.508C115.178 23.508 115.122 23.496 115.074 23.472C115.026 23.456 115.002 23.424 115.002 23.376C115.002 23.312 115.03 23.272 115.086 23.256C115.15 23.232 115.214 23.208 115.278 23.184C115.398 23.144 115.514 23.1 115.626 23.052C115.746 22.996 115.806 22.888 115.806 22.728V20.208C115.806 20.016 115.762 19.836 115.674 19.668C115.586 19.492 115.47 19.348 115.326 19.236C115.182 19.124 115.022 19.068 114.846 19.068C114.646 19.068 114.458 19.092 114.282 19.14C114.114 19.188 113.954 19.272 113.802 19.392C113.586 19.552 113.478 19.84 113.478 20.256V22.728C113.478 22.888 113.534 22.996 113.646 23.052C113.758 23.1 113.874 23.144 113.994 23.184C114.058 23.208 114.118 23.232 114.174 23.256C114.238 23.272 114.27 23.312 114.27 23.376C114.27 23.424 114.246 23.456 114.198 23.472C114.158 23.496 114.102 23.508 114.03 23.508C113.87 23.508 113.742 23.5 113.646 23.484C113.558 23.476 113.474 23.468 113.394 23.46C113.314 23.452 113.202 23.448 113.058 23.448C112.922 23.448 112.81 23.452 112.722 23.46C112.642 23.468 112.554 23.476 112.458 23.484C112.37 23.5 112.246 23.508 112.086 23.508Z" fill="#013366"/>
<path d="M108.138 23.508C108.058 23.508 107.998 23.496 107.958 23.472C107.918 23.456 107.898 23.424 107.898 23.376C107.898 23.312 107.922 23.272 107.97 23.256C108.018 23.232 108.086 23.208 108.174 23.184C108.326 23.144 108.438 23.088 108.51 23.016C108.59 22.936 108.63 22.84 108.63 22.728V20.148C108.63 19.932 108.598 19.744 108.534 19.584C108.47 19.424 108.338 19.324 108.138 19.284C108.106 19.276 108.078 19.256 108.054 19.224C108.03 19.192 108.018 19.16 108.018 19.128C108.018 19.048 108.054 19 108.126 18.984C108.334 18.92 108.55 18.828 108.774 18.708C109.006 18.58 109.186 18.476 109.314 18.396C109.362 18.364 109.398 18.344 109.422 18.336C109.454 18.32 109.478 18.312 109.494 18.312C109.534 18.312 109.554 18.34 109.554 18.396C109.554 18.42 109.55 18.48 109.542 18.576C109.542 18.672 109.538 18.784 109.53 18.912C109.53 19.04 109.526 19.168 109.518 19.296C109.518 19.312 109.526 19.32 109.542 19.32C109.67 19.16 109.81 19.02 109.962 18.9C110.122 18.78 110.282 18.684 110.442 18.612C110.61 18.54 110.77 18.504 110.922 18.504C111.09 18.504 111.226 18.54 111.33 18.612C111.442 18.684 111.498 18.776 111.498 18.888C111.498 18.968 111.474 19.056 111.426 19.152C111.386 19.248 111.33 19.332 111.258 19.404C111.186 19.476 111.11 19.512 111.03 19.512C110.982 19.512 110.93 19.504 110.874 19.488C110.818 19.464 110.758 19.436 110.694 19.404C110.63 19.38 110.566 19.356 110.502 19.332C110.438 19.308 110.374 19.296 110.31 19.296C110.118 19.296 109.93 19.364 109.746 19.5C109.57 19.636 109.482 19.904 109.482 20.304V22.728C109.482 22.832 109.538 22.92 109.65 22.992C109.762 23.056 109.918 23.12 110.118 23.184C110.206 23.208 110.274 23.232 110.322 23.256C110.37 23.28 110.394 23.32 110.394 23.376C110.394 23.464 110.314 23.508 110.154 23.508C109.914 23.508 109.73 23.496 109.602 23.472C109.482 23.456 109.318 23.448 109.11 23.448C108.974 23.448 108.862 23.452 108.774 23.46C108.694 23.468 108.606 23.476 108.51 23.484C108.422 23.5 108.298 23.508 108.138 23.508Z" fill="#013366"/>
<path d="M104.417 23.6399C103.969 23.6399 103.565 23.5359 103.205 23.3279C102.845 23.1199 102.557 22.8359 102.341 22.4759C102.133 22.1079 102.029 21.6919 102.029 21.2279C102.029 20.8919 102.093 20.5639 102.221 20.2439C102.357 19.9239 102.545 19.6319 102.785 19.3679C103.025 19.1039 103.305 18.8959 103.625 18.7439C103.945 18.5839 104.289 18.5039 104.657 18.5039C105.121 18.5039 105.537 18.6159 105.905 18.8399C106.281 19.0639 106.577 19.3599 106.793 19.7279C107.017 20.0879 107.129 20.4839 107.129 20.9159C107.129 21.3799 107.025 21.8199 106.817 22.2359C106.617 22.6519 106.317 22.9919 105.917 23.2559C105.517 23.5119 105.017 23.6399 104.417 23.6399ZM104.669 23.2799C104.941 23.2799 105.185 23.2279 105.401 23.1239C105.617 23.0199 105.785 22.8519 105.905 22.6199C106.001 22.4359 106.065 22.2119 106.097 21.9479C106.129 21.6839 106.145 21.4359 106.145 21.2039C106.145 20.8199 106.073 20.4519 105.929 20.0999C105.793 19.7399 105.597 19.4479 105.341 19.2239C105.093 18.9919 104.797 18.8759 104.453 18.8759C104.237 18.8759 104.041 18.9119 103.865 18.9839C103.697 19.0479 103.541 19.1719 103.397 19.3559C103.237 19.5559 103.133 19.7999 103.085 20.0879C103.037 20.3759 103.013 20.6639 103.013 20.9519C103.013 21.3439 103.085 21.7199 103.229 22.0799C103.373 22.4319 103.569 22.7199 103.817 22.9439C104.065 23.1679 104.349 23.2799 104.669 23.2799Z" fill="#013366"/>
<path d="M98.6209 23.508C98.5409 23.508 98.4809 23.496 98.4409 23.472C98.4009 23.456 98.3809 23.424 98.3809 23.376C98.3809 23.312 98.4049 23.268 98.4529 23.244C98.5089 23.22 98.5769 23.2 98.6569 23.184C98.8409 23.144 98.9729 23.088 99.0529 23.016C99.1329 22.936 99.1729 22.816 99.1729 22.656V19.272C99.0929 19.272 99.0009 19.272 98.8969 19.272C98.7929 19.264 98.6769 19.256 98.5489 19.248C98.5249 19.24 98.4889 19.212 98.4409 19.164C98.4009 19.116 98.3809 19.072 98.3809 19.032C98.3809 19.016 98.3929 19.004 98.4169 18.996C98.4409 18.98 98.4569 18.968 98.4649 18.96C98.6089 18.888 98.7329 18.824 98.8369 18.768C98.9409 18.712 99.0529 18.656 99.1729 18.6C99.1729 17.904 99.2569 17.324 99.4249 16.86C99.6009 16.396 99.8249 16.028 100.097 15.756C100.369 15.484 100.657 15.292 100.961 15.18C101.265 15.06 101.549 15 101.813 15C102.261 15 102.593 15.068 102.809 15.204C103.025 15.34 103.133 15.512 103.133 15.72C103.133 15.88 103.093 16 103.013 16.08C102.933 16.16 102.837 16.2 102.725 16.2C102.653 16.2 102.585 16.172 102.521 16.116C102.465 16.06 102.397 15.996 102.317 15.924C102.213 15.82 102.085 15.724 101.933 15.636C101.781 15.54 101.573 15.492 101.309 15.492C100.933 15.492 100.621 15.656 100.373 15.984C100.133 16.312 100.013 16.816 100.013 17.496V18.552C100.013 18.6 100.025 18.632 100.049 18.648C100.081 18.664 100.113 18.672 100.145 18.672H101.645C101.685 18.672 101.721 18.684 101.753 18.708C101.785 18.732 101.801 18.764 101.801 18.804C101.801 18.86 101.793 18.92 101.777 18.984C101.769 19.048 101.753 19.104 101.729 19.152C101.705 19.216 101.669 19.248 101.621 19.248H100.241C100.145 19.248 100.081 19.264 100.049 19.296C100.025 19.32 100.013 19.356 100.013 19.404V22.656C100.013 22.816 100.065 22.936 100.169 23.016C100.273 23.088 100.485 23.144 100.805 23.184C100.989 23.208 101.081 23.272 101.081 23.376C101.081 23.424 101.061 23.456 101.021 23.472C100.981 23.496 100.921 23.508 100.841 23.508C100.601 23.508 100.389 23.496 100.205 23.472C100.021 23.456 99.8249 23.448 99.6169 23.448C99.4809 23.448 99.3689 23.452 99.2809 23.46C99.1929 23.468 99.1009 23.476 99.0049 23.484C98.9089 23.5 98.7809 23.508 98.6209 23.508Z" fill="#013366"/>
<path d="M92.281 23.508C92.209 23.508 92.149 23.496 92.101 23.472C92.061 23.456 92.041 23.424 92.041 23.376C92.041 23.312 92.065 23.272 92.113 23.256C92.161 23.232 92.229 23.208 92.317 23.184C92.437 23.152 92.553 23.108 92.665 23.052C92.777 22.996 92.833 22.888 92.833 22.728V20.148C92.833 19.932 92.809 19.748 92.761 19.596C92.721 19.444 92.597 19.34 92.389 19.284C92.357 19.268 92.329 19.252 92.305 19.236C92.281 19.212 92.269 19.176 92.269 19.128C92.269 19.04 92.305 18.992 92.377 18.984C92.657 18.912 92.885 18.824 93.061 18.72C93.237 18.616 93.409 18.5 93.577 18.372C93.601 18.356 93.621 18.344 93.637 18.336C93.661 18.32 93.685 18.312 93.709 18.312C93.725 18.312 93.737 18.32 93.745 18.336C93.761 18.352 93.769 18.372 93.769 18.396C93.769 18.452 93.757 18.568 93.733 18.744C93.717 18.912 93.709 19.052 93.709 19.164C93.709 19.196 93.709 19.228 93.709 19.26C93.717 19.284 93.725 19.3 93.733 19.308C94.013 19.044 94.309 18.844 94.621 18.708C94.941 18.572 95.289 18.504 95.665 18.504C96.057 18.504 96.381 18.664 96.637 18.984C96.893 19.304 97.021 19.7 97.021 20.172V22.728C97.021 22.888 97.077 22.996 97.189 23.052C97.301 23.1 97.417 23.144 97.537 23.184C97.601 23.208 97.661 23.236 97.717 23.268C97.781 23.292 97.813 23.336 97.813 23.4C97.813 23.448 97.785 23.476 97.729 23.484C97.673 23.5 97.621 23.508 97.573 23.508C97.413 23.508 97.289 23.5 97.201 23.484C97.113 23.476 97.029 23.468 96.949 23.46C96.869 23.452 96.757 23.448 96.613 23.448C96.477 23.448 96.365 23.452 96.277 23.46C96.189 23.468 96.097 23.476 96.001 23.484C95.913 23.5 95.789 23.508 95.629 23.508C95.589 23.508 95.537 23.5 95.473 23.484C95.417 23.476 95.389 23.448 95.389 23.4C95.389 23.336 95.417 23.292 95.473 23.268C95.537 23.236 95.601 23.208 95.665 23.184C95.785 23.144 95.901 23.1 96.013 23.052C96.125 22.996 96.181 22.888 96.181 22.728V20.208C96.181 19.856 96.081 19.584 95.881 19.392C95.689 19.192 95.429 19.088 95.101 19.08C94.813 19.08 94.561 19.128 94.345 19.224C94.129 19.312 93.937 19.424 93.769 19.56C93.737 19.592 93.713 19.636 93.697 19.692C93.681 19.74 93.673 19.788 93.673 19.836V22.728C93.673 22.888 93.729 22.996 93.841 23.052C93.953 23.108 94.069 23.152 94.189 23.184C94.373 23.232 94.465 23.296 94.465 23.376C94.465 23.424 94.445 23.456 94.405 23.472C94.365 23.496 94.305 23.508 94.225 23.508C94.065 23.508 93.937 23.5 93.841 23.484C93.753 23.476 93.669 23.468 93.589 23.46C93.509 23.452 93.397 23.448 93.253 23.448C93.117 23.448 93.005 23.452 92.917 23.46C92.837 23.468 92.749 23.476 92.653 23.484C92.565 23.5 92.441 23.508 92.281 23.508Z" fill="#013366"/>
<path d="M88.2523 23.532C88.1483 23.532 88.0643 23.52 88.0003 23.496C87.9363 23.48 87.9043 23.448 87.9043 23.4C87.9043 23.304 88.0363 23.232 88.3003 23.184C88.6043 23.128 88.8363 23.036 88.9963 22.908C89.1563 22.78 89.2363 22.576 89.2363 22.296V16.872C89.2363 16.592 89.1763 16.392 89.0563 16.272C88.9443 16.152 88.7363 16.064 88.4323 16.008C88.1683 15.96 88.0363 15.88 88.0363 15.768C88.0363 15.72 88.0683 15.688 88.1323 15.672C88.1963 15.648 88.2803 15.636 88.3843 15.636C88.6003 15.636 88.7763 15.64 88.9123 15.648C89.0563 15.656 89.1923 15.664 89.3203 15.672C89.4483 15.672 89.6043 15.672 89.7883 15.672C89.9643 15.672 90.1083 15.672 90.2203 15.672C90.3323 15.664 90.4523 15.656 90.5803 15.648C90.7083 15.64 90.8803 15.636 91.0963 15.636C91.2003 15.636 91.2843 15.648 91.3483 15.672C91.4123 15.688 91.4443 15.72 91.4443 15.768C91.4443 15.824 91.4123 15.872 91.3483 15.912C91.2843 15.952 91.1843 15.984 91.0483 16.008C90.7523 16.064 90.5363 16.152 90.4003 16.272C90.2643 16.392 90.1963 16.592 90.1963 16.872V22.296C90.1963 22.576 90.2803 22.78 90.4483 22.908C90.6163 23.036 90.8483 23.128 91.1443 23.184C91.2803 23.208 91.3803 23.236 91.4443 23.268C91.5083 23.3 91.5403 23.344 91.5403 23.4C91.5403 23.448 91.5083 23.48 91.4443 23.496C91.3803 23.52 91.2963 23.532 91.1923 23.532C90.9763 23.532 90.7963 23.524 90.6523 23.508C90.5163 23.5 90.3843 23.492 90.2563 23.484C90.1283 23.476 89.9723 23.472 89.7883 23.472C89.5883 23.472 89.4123 23.476 89.2603 23.484C89.1163 23.492 88.9643 23.5 88.8043 23.508C88.6523 23.524 88.4683 23.532 88.2523 23.532Z" fill="#013366"/>
<path d="M83.153 23.6519C82.713 23.6519 82.329 23.5439 82.001 23.3279C81.673 23.1119 81.417 22.8079 81.233 22.4159C81.049 22.0159 80.957 21.5559 80.957 21.0359C80.957 20.5719 81.061 20.1519 81.269 19.7759C81.485 19.3919 81.769 19.0839 82.121 18.8519C82.473 18.6199 82.857 18.5039 83.273 18.5039C83.593 18.5039 83.877 18.5679 84.125 18.6959C84.373 18.8239 84.565 19.0039 84.701 19.2359C84.845 19.4599 84.917 19.7199 84.917 20.0159C84.917 20.2639 84.797 20.3879 84.557 20.3879H82.025C81.913 20.3879 81.833 20.4199 81.785 20.4839C81.745 20.5399 81.725 20.6559 81.725 20.8319C81.725 21.2159 81.809 21.5679 81.977 21.8879C82.145 22.1999 82.369 22.4519 82.649 22.6439C82.929 22.8279 83.237 22.9199 83.573 22.9199C83.813 22.9199 84.029 22.8759 84.221 22.7879C84.421 22.6919 84.597 22.5559 84.749 22.3799C84.781 22.3399 84.805 22.3159 84.821 22.3079C84.837 22.2919 84.857 22.2839 84.881 22.2839C84.945 22.2839 84.977 22.3239 84.977 22.4039C84.977 22.5559 84.905 22.7239 84.761 22.9079C84.641 23.0599 84.497 23.1919 84.329 23.3039C84.161 23.4159 83.977 23.4999 83.777 23.5559C83.577 23.6199 83.369 23.6519 83.153 23.6519ZM82.049 20.0159H83.141C83.333 20.0159 83.497 20.0119 83.633 20.0039C83.769 19.9959 83.901 19.9799 84.029 19.9559C84.069 19.9479 84.093 19.9239 84.101 19.8839C84.117 19.8359 84.125 19.7719 84.125 19.6919C84.125 19.4599 84.021 19.2639 83.813 19.1039C83.613 18.9359 83.373 18.8519 83.093 18.8519C82.909 18.8519 82.725 18.9079 82.541 19.0199C82.357 19.1239 82.205 19.2559 82.085 19.4159C81.965 19.5759 81.905 19.7359 81.905 19.8959C81.905 19.9759 81.953 20.0159 82.049 20.0159Z" fill="#013366"/>
<path d="M79.0921 23.64C78.7001 23.64 78.3921 23.52 78.1681 23.28C77.9521 23.04 77.8441 22.684 77.8441 22.212V19.428C77.8441 19.364 77.8201 19.32 77.7721 19.296C77.7241 19.264 77.6201 19.248 77.4601 19.248H77.3881C77.3481 19.248 77.3121 19.224 77.2801 19.176C77.2561 19.12 77.2441 19.064 77.2441 19.008C77.2441 18.992 77.2561 18.968 77.2801 18.936C77.3041 18.904 77.3201 18.884 77.3281 18.876C77.4881 18.764 77.6321 18.652 77.7601 18.54C77.8961 18.428 78.0161 18.32 78.1201 18.216C78.2321 18.104 78.3241 18.004 78.3961 17.916C78.4361 17.876 78.4681 17.844 78.4921 17.82C78.5241 17.788 78.5601 17.772 78.6001 17.772C78.6401 17.772 78.6761 17.78 78.7081 17.796C78.7481 17.812 78.7641 17.848 78.7561 17.904L78.6961 18.444C78.6881 18.532 78.7081 18.592 78.7561 18.624C78.8041 18.656 78.8801 18.672 78.9841 18.672H80.3521C80.3841 18.672 80.4121 18.7 80.4361 18.756C80.4601 18.804 80.4721 18.864 80.4721 18.936C80.4721 19.008 80.4601 19.08 80.4361 19.152C80.4121 19.216 80.3841 19.248 80.3521 19.248H79.1641C78.9641 19.248 78.8321 19.264 78.7681 19.296C78.7121 19.328 78.6841 19.424 78.6841 19.584V21.948C78.6841 22.268 78.7521 22.52 78.8881 22.704C79.0241 22.888 79.2201 22.98 79.4761 22.98C79.7081 22.98 79.8881 22.964 80.0161 22.932C80.1441 22.892 80.2601 22.836 80.3641 22.764C80.3801 22.748 80.3961 22.74 80.4121 22.74C80.4441 22.74 80.4641 22.76 80.4721 22.8C80.4881 22.832 80.4961 22.868 80.4961 22.908C80.4961 22.948 80.4281 23.028 80.2921 23.148C80.1641 23.268 79.9921 23.38 79.7761 23.484C79.5681 23.588 79.3401 23.64 79.0921 23.64Z" fill="#013366"/>
<path d="M74.8878 23.6999C74.8318 23.6999 74.8038 23.6679 74.8038 23.6039C74.8038 23.5239 74.8118 23.4079 74.8278 23.2559C74.8518 23.0959 74.8638 22.9639 74.8638 22.8599C74.8638 22.8439 74.8638 22.8319 74.8638 22.8239C74.8638 22.8079 74.8638 22.7959 74.8638 22.7879C74.5518 23.0919 74.2358 23.3119 73.9158 23.4479C73.6038 23.5759 73.2598 23.6399 72.8838 23.6399C72.6278 23.6399 72.3957 23.5839 72.1877 23.4719C71.9797 23.3679 71.8158 23.2119 71.6958 23.0039C71.5758 22.7879 71.5158 22.5239 71.5158 22.2119V19.7759C71.5158 19.5999 71.4758 19.4599 71.3958 19.3559C71.3158 19.2519 71.1838 19.1639 70.9998 19.0919C70.9598 19.0759 70.9238 19.0559 70.8918 19.0319C70.8598 19.0079 70.8438 18.9639 70.8438 18.8999C70.8438 18.8279 70.8598 18.7799 70.8918 18.7559C70.9318 18.7319 70.9758 18.7159 71.0238 18.7079C71.2958 18.6919 71.5038 18.6719 71.6478 18.6479C71.7998 18.6159 71.9877 18.5719 72.2118 18.5159C72.2358 18.5079 72.2518 18.5039 72.2598 18.5039C72.2758 18.5039 72.2918 18.5039 72.3078 18.5039C72.3958 18.5039 72.4357 18.5599 72.4277 18.6719C72.4037 18.8559 72.3838 19.0119 72.3678 19.1399C72.3598 19.2599 72.3558 19.4119 72.3558 19.5959V21.9359C72.3558 22.1279 72.4038 22.3079 72.4998 22.4759C72.5958 22.6359 72.7197 22.7679 72.8717 22.8719C73.0317 22.9759 73.1958 23.0279 73.3638 23.0279C73.5718 23.0279 73.7518 23.0159 73.9038 22.9919C74.0638 22.9679 74.2197 22.8999 74.3717 22.7879C74.4597 22.7239 74.5718 22.6199 74.7078 22.4759C74.8438 22.3319 74.9118 22.1359 74.9118 21.8879V19.6919C74.9118 19.5239 74.8598 19.3999 74.7558 19.3199C74.6598 19.2319 74.5478 19.1719 74.4198 19.1399C74.2918 19.1079 74.1877 19.0919 74.1077 19.0919C74.0357 19.0919 73.9757 19.0799 73.9277 19.0559C73.8797 19.0239 73.8558 18.9679 73.8558 18.8879C73.8558 18.8159 73.8797 18.7679 73.9277 18.7439C73.9837 18.7199 74.0437 18.7079 74.1077 18.7079C74.3557 18.6999 74.5598 18.6919 74.7198 18.6839C74.8878 18.6679 75.0358 18.6479 75.1638 18.6239C75.2998 18.5919 75.4398 18.5559 75.5838 18.5159C75.5998 18.5079 75.6198 18.5039 75.6438 18.5039C75.6678 18.4959 75.6878 18.4919 75.7038 18.4919C75.8078 18.4919 75.8598 18.5359 75.8598 18.6239C75.8598 18.6319 75.8557 18.6479 75.8477 18.6719C75.8477 18.6879 75.8438 18.7079 75.8358 18.7319C75.8278 18.7559 75.8158 18.8239 75.7998 18.9359C75.7918 19.0479 75.7798 19.1639 75.7638 19.2839C75.7558 19.4039 75.7518 19.4959 75.7518 19.5599V22.3319C75.7518 22.5479 75.7718 22.7039 75.8118 22.7999C75.8598 22.8879 75.9118 22.9319 75.9678 22.9319C76.0318 22.9319 76.1238 22.9279 76.2438 22.9199C76.3718 22.9039 76.4638 22.8959 76.5198 22.8959C76.5598 22.8959 76.5998 22.9039 76.6398 22.9199C76.6798 22.9359 76.6998 22.9799 76.6998 23.0519C76.6998 23.1159 76.6838 23.1599 76.6518 23.1839C76.6198 23.1999 76.5797 23.2119 76.5317 23.2199C76.2197 23.2599 75.9518 23.3199 75.7278 23.3999C75.5038 23.4799 75.3038 23.5559 75.1278 23.6279C75.1038 23.6359 75.0678 23.6479 75.0198 23.6639C74.9718 23.6879 74.9278 23.6999 74.8878 23.6999Z" fill="#013366"/>
<path d="M67.3626 23.6399C66.9146 23.6399 66.5106 23.5359 66.1506 23.3279C65.7906 23.1199 65.5026 22.8359 65.2866 22.4759C65.0786 22.1079 64.9746 21.6919 64.9746 21.2279C64.9746 20.8919 65.0386 20.5639 65.1666 20.2439C65.3026 19.9239 65.4906 19.6319 65.7306 19.3679C65.9706 19.1039 66.2506 18.8959 66.5706 18.7439C66.8906 18.5839 67.2346 18.5039 67.6026 18.5039C68.0666 18.5039 68.4826 18.6159 68.8506 18.8399C69.2266 19.0639 69.5226 19.3599 69.7386 19.7279C69.9626 20.0879 70.0746 20.4839 70.0746 20.9159C70.0746 21.3799 69.9706 21.8199 69.7626 22.2359C69.5626 22.6519 69.2626 22.9919 68.8626 23.2559C68.4626 23.5119 67.9626 23.6399 67.3626 23.6399ZM67.6146 23.2799C67.8866 23.2799 68.1306 23.2279 68.3466 23.1239C68.5626 23.0199 68.7306 22.8519 68.8506 22.6199C68.9466 22.4359 69.0106 22.2119 69.0426 21.9479C69.0746 21.6839 69.0906 21.4359 69.0906 21.2039C69.0906 20.8199 69.0186 20.4519 68.8746 20.0999C68.7386 19.7399 68.5426 19.4479 68.2866 19.2239C68.0386 18.9919 67.7426 18.8759 67.3986 18.8759C67.1826 18.8759 66.9866 18.9119 66.8106 18.9839C66.6426 19.0479 66.4866 19.1719 66.3426 19.3559C66.1826 19.5559 66.0786 19.7999 66.0306 20.0879C65.9826 20.3759 65.9586 20.6639 65.9586 20.9519C65.9586 21.3439 66.0306 21.7199 66.1746 22.0799C66.3186 22.4319 66.5146 22.7199 66.7626 22.9439C67.0106 23.1679 67.2946 23.2799 67.6146 23.2799Z" fill="#013366"/>
<path d="M63.6431 23.7239C63.4191 23.7239 63.2071 23.7039 63.0071 23.6639C62.8071 23.6319 62.6231 23.5679 62.4551 23.4719C62.2871 23.3759 62.1311 23.2439 61.9871 23.0759C61.7951 22.8359 61.6111 22.6079 61.4351 22.3919C61.2591 22.1679 61.0711 21.9119 60.8711 21.6239C60.6791 21.3359 60.4431 20.9679 60.1631 20.5199C60.0431 20.3199 59.8711 20.1639 59.6471 20.0519C59.4711 19.9639 59.2951 19.9039 59.1191 19.8719C58.9511 19.8319 58.8111 19.8079 58.6991 19.7999C58.6351 19.7919 58.5871 19.8119 58.5551 19.8599C58.5311 19.9079 58.5191 19.9679 58.5191 20.0399V22.1519C58.5191 22.4079 58.5791 22.6319 58.6991 22.8239C58.8191 23.0079 59.0271 23.1279 59.3231 23.1839C59.4591 23.2079 59.5591 23.2359 59.6231 23.2679C59.6871 23.2999 59.7191 23.3439 59.7191 23.3999C59.7191 23.4479 59.6871 23.4799 59.6231 23.4959C59.5591 23.5199 59.4751 23.5319 59.3711 23.5319C59.1551 23.5319 58.9871 23.5239 58.8671 23.5079C58.7551 23.4919 58.6511 23.4799 58.5551 23.4719C58.4671 23.4559 58.3471 23.4479 58.1951 23.4479C57.9951 23.4479 57.8151 23.4559 57.6551 23.4719C57.5031 23.4799 57.3471 23.4919 57.1871 23.5079C57.0351 23.5239 56.8511 23.5319 56.6351 23.5319C56.5311 23.5319 56.4471 23.5199 56.3831 23.4959C56.3191 23.4799 56.2871 23.4479 56.2871 23.3999C56.2871 23.3039 56.4191 23.2319 56.6831 23.1839C56.9871 23.1279 57.2071 23.0359 57.3431 22.9079C57.4871 22.7799 57.5591 22.5679 57.5591 22.2719V17.1599C57.5591 16.8559 57.5431 16.6279 57.5111 16.4759C57.4871 16.3159 57.4231 16.2039 57.3191 16.1399C57.2231 16.0759 57.0591 16.0319 56.8271 16.0079C56.6911 15.9919 56.5911 15.9639 56.5271 15.9239C56.4631 15.8759 56.4311 15.8239 56.4311 15.7679C56.4311 15.7199 56.4631 15.6879 56.5271 15.6719C56.5911 15.6479 56.6751 15.6359 56.7791 15.6359C56.9951 15.6359 57.1551 15.6359 57.2591 15.6359C57.3711 15.6359 57.4751 15.6399 57.5711 15.6479C57.6671 15.6479 57.7951 15.6479 57.9551 15.6479C58.1071 15.6479 58.2431 15.6439 58.3631 15.6359C58.4831 15.6199 58.6151 15.6079 58.7591 15.5999C58.9111 15.5919 59.1031 15.5879 59.3351 15.5879C60.2151 15.5879 60.8831 15.7519 61.3391 16.0799C61.8031 16.4079 62.0351 16.8999 62.0351 17.5559C62.0351 17.9159 61.9631 18.2279 61.8191 18.4919C61.6751 18.7479 61.4951 18.9639 61.2791 19.1399C61.0631 19.3159 60.8431 19.4599 60.6191 19.5719C60.5871 19.5799 60.5711 19.5999 60.5711 19.6319C60.5791 19.6559 60.5951 19.6879 60.6191 19.7279C60.8671 20.1039 61.1031 20.4599 61.3271 20.7959C61.5591 21.1319 61.8111 21.4599 62.0831 21.7799C62.3551 22.0999 62.6791 22.4319 63.0551 22.7759C63.2631 22.9599 63.4751 23.0719 63.6911 23.1119C63.9071 23.1519 64.1551 23.1719 64.4351 23.1719C64.5551 23.1719 64.6151 23.2159 64.6151 23.3039C64.6151 23.4239 64.5551 23.5119 64.4351 23.5679C64.3151 23.6319 64.1791 23.6719 64.0271 23.6879C63.8751 23.7119 63.7471 23.7239 63.6431 23.7239ZM59.1551 19.5239C59.5231 19.5239 59.8391 19.4399 60.1031 19.2719C60.3751 19.1039 60.5831 18.8839 60.7271 18.6119C60.8791 18.3399 60.9551 18.0519 60.9551 17.7479C60.9551 17.4199 60.9111 17.1199 60.8231 16.8479C60.7431 16.5759 60.5751 16.3599 60.3191 16.1999C60.0711 16.0319 59.6951 15.9479 59.1911 15.9479C58.9351 15.9479 58.7671 16.0319 58.6871 16.1999C58.6071 16.3599 58.5591 16.6479 58.5431 17.0639C58.5351 17.2639 58.5271 17.5359 58.5191 17.8799C58.5191 18.2159 58.5191 18.6239 58.5191 19.1039C58.5191 19.3039 58.5751 19.4239 58.6871 19.4639C58.7991 19.5039 58.9551 19.5239 59.1551 19.5239Z" fill="#013366"/>
</svg>
