<svg width="32" height="32" viewBox="0 0 32 32" fill="none" xmlns="http://www.w3.org/2000/svg">
<rect x="1" y="1" width="30" height="30" rx="3" fill="#F6E24B"/>
<rect x="1" y="1" width="30" height="30" rx="3" stroke="#DEC92F" stroke-width="2"/>
<path d="M10.5 10H15.4688C17.9688 10 20 12.0312 19.9688 14.5312C19.9688 16.75 18.375 18.625 16.2188 19H16.1562C15.5938 19.0938 15.0938 18.7188 15 18.1875C14.9062 17.625 15.2812 17.125 15.8125 17.0312H15.875C17.0938 16.8125 18 15.75 18 14.5312C18 13.1562 16.8438 12 15.4688 12H10.5C9.125 12 8 13.1562 8 14.5312C8 15.75 8.875 16.8125 10.0938 17.0312H10.1562C10.6875 17.125 11.0625 17.625 10.9688 18.1875C10.875 18.7188 10.375 19.0938 9.8125 19H9.75C7.59375 18.625 6 16.75 6 14.5312C6 12.0312 8 10 10.5 10ZM21.4688 22H16.5C14 22 12 20 12 17.5C12 15.2812 13.5938 13.4062 15.7812 13.0312H15.8125C16.375 12.9375 16.875 13.3125 16.9688 13.8438C17.0625 14.4062 16.6875 14.9062 16.1562 15H16.0938C14.875 15.2188 14 16.25 14 17.5C14 18.875 15.125 20 16.5 20H21.4688C22.875 20 24 18.875 24 17.5C24 16.25 23.0938 15.2188 21.875 15H21.8125C21.2812 14.9062 20.9062 14.4062 21 13.8438C21.0938 13.3125 21.5938 12.9375 22.1562 13.0312H22.2188C24.375 13.4062 26 15.2812 26 17.5C26 20 23.9688 22 21.4688 22Z" fill="#2D2D2D"/>
</svg>
