<svg width="24" height="24" viewBox="0 0 24 24" fill="none" xmlns="http://www.w3.org/2000/svg">
<rect x="1" y="1" width="22" height="22" rx="3" fill="white"/>
<rect x="1" y="1" width="22" height="22" rx="3" stroke="#F6E24B" stroke-width="2"/>
<rect x="1" y="1" width="22" height="22" rx="3" fill="#FFEF76"/>
<rect x="1" y="1" width="22" height="22" rx="3" stroke="#DEC92F" stroke-width="2"/>
<path d="M7.875 8H11.6016C13.4766 8 15 9.52344 14.9766 11.3984C14.9766 13.0625 13.7812 14.4688 12.1641 14.75H12.1172C11.6953 14.8203 11.3203 14.5391 11.25 14.1406C11.1797 13.7188 11.4609 13.3438 11.8594 13.2734H11.9062C12.8203 13.1094 13.5 12.3125 13.5 11.3984C13.5 10.3672 12.6328 9.5 11.6016 9.5H7.875C6.84375 9.5 6 10.3672 6 11.3984C6 12.3125 6.65625 13.1094 7.57031 13.2734H7.61719C8.01562 13.3438 8.29688 13.7188 8.22656 14.1406C8.15625 14.5391 7.78125 14.8203 7.35938 14.75H7.3125C5.69531 14.4688 4.5 13.0625 4.5 11.3984C4.5 9.52344 6 8 7.875 8ZM16.1016 17H12.375C10.5 17 9 15.5 9 13.625C9 11.9609 10.1953 10.5547 11.8359 10.2734H11.8594C12.2812 10.2031 12.6562 10.4844 12.7266 10.8828C12.7969 11.3047 12.5156 11.6797 12.1172 11.75H12.0703C11.1562 11.9141 10.5 12.6875 10.5 13.625C10.5 14.6562 11.3438 15.5 12.375 15.5H16.1016C17.1562 15.5 18 14.6562 18 13.625C18 12.6875 17.3203 11.9141 16.4062 11.75H16.3594C15.9609 11.6797 15.6797 11.3047 15.75 10.8828C15.8203 10.4844 16.1953 10.2031 16.6172 10.2734H16.6641C18.2812 10.5547 19.5 11.9609 19.5 13.625C19.5 15.5 17.9766 17 16.1016 17Z" fill="#252423"/>
</svg>
