<svg width="24" height="24" viewBox="0 0 24 24" fill="none" xmlns="http://www.w3.org/2000/svg">
<rect x="1" y="1" width="22" height="22" rx="3" fill="white"/>
<rect x="1" y="1" width="22" height="22" rx="3" stroke="#F6E24B" stroke-width="2"/>
<path d="M8.09375 7.75H11.5098C13.2285 7.75 14.625 9.14648 14.6035 10.8652C14.6035 12.3906 13.5078 13.6797 12.0254 13.9375H11.9824C11.5957 14.002 11.252 13.7441 11.1875 13.3789C11.123 12.9922 11.3809 12.6484 11.7461 12.584H11.7891C12.627 12.4336 13.25 11.7031 13.25 10.8652C13.25 9.91992 12.4551 9.125 11.5098 9.125H8.09375C7.14844 9.125 6.375 9.91992 6.375 10.8652C6.375 11.7031 6.97656 12.4336 7.81445 12.584H7.85742C8.22266 12.6484 8.48047 12.9922 8.41602 13.3789C8.35156 13.7441 8.00781 14.002 7.62109 13.9375H7.57812C6.0957 13.6797 5 12.3906 5 10.8652C5 9.14648 6.375 7.75 8.09375 7.75ZM15.6348 16H12.2188C10.5 16 9.125 14.625 9.125 12.9062C9.125 11.3809 10.2207 10.0918 11.7246 9.83398H11.7461C12.1328 9.76953 12.4766 10.0273 12.541 10.3926C12.6055 10.7793 12.3477 11.123 11.9824 11.1875H11.9395C11.1016 11.3379 10.5 12.0469 10.5 12.9062C10.5 13.8516 11.2734 14.625 12.2188 14.625H15.6348C16.6016 14.625 17.375 13.8516 17.375 12.9062C17.375 12.0469 16.752 11.3379 15.9141 11.1875H15.8711C15.5059 11.123 15.248 10.7793 15.3125 10.3926C15.377 10.0273 15.7207 9.76953 16.1074 9.83398H16.1504C17.6328 10.0918 18.75 11.3809 18.75 12.9062C18.75 14.625 17.3535 16 15.6348 16Z" fill="#2D2D2D"/>
</svg>
