<svg width="24" height="24" viewBox="0 0 24 24" fill="none" xmlns="http://www.w3.org/2000/svg">
<rect x="1" y="1" width="22" height="22" rx="3" fill="white"/>
<rect x="1" y="1" width="22" height="22" rx="3" stroke="#FCBA19" stroke-width="2"/>
<path d="M7.33333 6C7.74653 6 8.11111 6.38086 8.11111 6.8125H15.8889C15.8889 6.38086 16.2292 6 16.6667 6C17.0799 6 17.4444 6.38086 17.4444 6.8125H17.8333C18.4653 6.8125 19 7.37109 19 8.03125V15.3438C19 16.0293 18.4653 16.5625 17.8333 16.5625H6.16667C5.51042 16.5625 5 16.0293 5 15.3438V8.03125C5 7.37109 5.51042 6.8125 6.16667 6.8125H6.55556C6.55556 6.38086 6.89583 6 7.33333 6ZM8.11111 17.375V18.1875C8.11111 18.6445 7.74653 19 7.33333 19C6.89583 19 6.55556 18.6445 6.55556 18.1875V17.375H8.11111ZM15.8889 17.375H17.4444V18.1875C17.4444 18.6445 17.0799 19 16.6667 19C16.2292 19 15.8889 18.6445 15.8889 18.1875V17.375Z" fill="#252423"/>
</svg>
