<svg width="35" height="34" viewBox="0 0 35 34" fill="none" xmlns="http://www.w3.org/2000/svg">
<rect x="2.1716" y="16.9706" width="22" height="22" rx="3" transform="rotate(-45 2.1716 16.9706)" fill="#CE3E39"/>
<rect x="2.1716" y="16.9706" width="22" height="22" rx="3" transform="rotate(-45 2.1716 16.9706)" stroke="#953734" stroke-width="2"/>
<path d="M16.228 10.974C16.228 10.1437 16.8995 9.47058 17.728 9.47058C18.5564 9.47058 19.228 10.1437 19.228 10.974V18.2718C19.228 19.1021 18.5564 19.7753 17.728 19.7753C16.8995 19.7753 16.228 19.1021 16.228 18.2718V10.974Z" fill="white"/>
<path d="M19.228 22.9671C19.228 23.7975 18.5564 24.4706 17.728 24.4706C16.8995 24.4706 16.228 23.7975 16.228 22.9671C16.228 22.1368 16.8995 21.4637 17.728 21.4637C18.5564 21.4637 19.228 22.1368 19.228 22.9671Z" fill="white"/>
</svg>
