<svg width="26" height="26" viewBox="0 0 26 26" fill="none" xmlns="http://www.w3.org/2000/svg">
<rect x="1.41421" y="12.7275" width="16" height="16" rx="3" transform="rotate(-45 1.41421 12.7275)" fill="white"/>
<rect x="1.41421" y="12.7275" width="16" height="16" rx="3" transform="rotate(-45 1.41421 12.7275)" stroke="#3B7142" stroke-width="2"/>
<path d="M8.22791 9.72754C8.49353 9.72754 8.72791 9.96191 8.72791 10.2275V10.7275H10.056L8.72791 13.3994V16.2275C8.72791 16.5088 8.49353 16.7275 8.22791 16.7275C7.94666 16.7275 7.72791 16.5088 7.72791 16.2275V10.2275C7.72791 9.96191 7.94666 9.72754 8.22791 9.72754ZM14.056 10.7275L12.6342 13.5713L12.556 13.7275H11.3842L12.806 10.8994L12.8842 10.7275H14.056ZM13.3842 13.7275L14.806 10.8994L14.8842 10.7275H16.056L14.6342 13.5713L14.556 13.7275H13.3842ZM10.8842 10.7275H12.056L10.6342 13.5713L10.556 13.7275H9.38416L10.806 10.8994L10.8842 10.7275ZM15.3842 13.7275L16.7279 11.0713V10.2275C16.7279 9.96191 16.9467 9.72754 17.2279 9.72754C17.4935 9.72754 17.7279 9.96191 17.7279 10.2275V16.2275C17.7279 16.5088 17.4935 16.7275 17.2279 16.7275C16.9467 16.7275 16.7279 16.5088 16.7279 16.2275V13.7275H15.3842Z" fill="#3B7142"/>
</svg>
