<svg width="35" height="35" viewBox="0 0 35 35" fill="none" xmlns="http://www.w3.org/2000/svg">
<rect x="2.1716" y="17.7275" width="22" height="22" rx="3" transform="rotate(-45 2.1716 17.7275)" fill="#9F9D9C"/>
<rect x="2.1716" y="17.7275" width="22" height="22" rx="3" transform="rotate(-45 2.1716 17.7275)" stroke="#605E5C" stroke-width="2"/>
<path d="M10.978 12.4775C11.3764 12.4775 11.728 12.8291 11.728 13.2275V13.9775H13.7202L11.728 17.9854V22.2275C11.728 22.6494 11.3764 22.9775 10.978 22.9775C10.5561 22.9775 10.228 22.6494 10.228 22.2275V13.2275C10.228 12.8291 10.5561 12.4775 10.978 12.4775ZM19.7202 13.9775L17.5873 18.2432L17.4702 18.4775H15.7123L17.8452 14.2354L17.9623 13.9775H19.7202ZM18.7123 18.4775L20.8452 14.2354L20.9623 13.9775H22.7202L20.5873 18.2432L20.4702 18.4775H18.7123ZM14.9623 13.9775H16.7202L14.5873 18.2432L14.4702 18.4775H12.7123L14.8452 14.2354L14.9623 13.9775ZM21.7123 18.4775L23.728 14.4932V13.2275C23.728 12.8291 24.0561 12.4775 24.478 12.4775C24.8764 12.4775 25.228 12.8291 25.228 13.2275V22.2275C25.228 22.6494 24.8764 22.9775 24.478 22.9775C24.0561 22.9775 23.728 22.6494 23.728 22.2275V18.4775H21.7123Z" fill="#605E5C"/>
</svg>
