<svg width="26" height="26" viewBox="0 0 26 26" fill="none" xmlns="http://www.w3.org/2000/svg">
<rect x="1.41421" y="12.7275" width="16" height="16" rx="3" transform="rotate(-45 1.41421 12.7275)" fill="white"/>
<rect x="1.41421" y="12.7275" width="16" height="16" rx="3" transform="rotate(-45 1.41421 12.7275)" stroke="#CE3E39" stroke-width="2"/>
<path d="M11.2279 7.13077C11.2279 6.35579 11.8995 5.72754 12.7279 5.72754C13.5563 5.72754 14.2279 6.35579 14.2279 7.13077V13.942C14.2279 14.717 13.5563 15.3452 12.7279 15.3452C11.8995 15.3452 11.2279 14.717 11.2279 13.942V7.13077Z" fill="#CE3E39"/>
<path d="M14.2279 18.3243C14.2279 19.0993 13.5563 19.7275 12.7279 19.7275C11.8995 19.7275 11.2279 19.0993 11.2279 18.3243C11.2279 17.5493 11.8995 16.9211 12.7279 16.9211C13.5563 16.9211 14.2279 17.5493 14.2279 18.3243Z" fill="#CE3E39"/>
</svg>
