<svg width="34" height="35" viewBox="0 0 34 35" fill="none" xmlns="http://www.w3.org/2000/svg">
<rect x="1.41421" y="17.7275" width="22" height="22" rx="3" transform="rotate(-45 1.41421 17.7275)" fill="#9F9D9C"/>
<rect x="1.41421" y="17.7275" width="22" height="22" rx="3" transform="rotate(-45 1.41421 17.7275)" stroke="#605E5C" stroke-width="2"/>
<path d="M13.4706 11.7275C13.7753 11.7275 14.0331 11.9854 14.0331 12.29V13.2275H17.4081V12.29C17.4081 11.9854 17.6425 11.7275 17.9706 11.7275C18.2753 11.7275 18.5331 11.9854 18.5331 12.29V13.2275H19.4706C20.2909 13.2275 20.9706 13.9072 20.9706 14.7275V15.1025V16.2275H20.5956H19.8456H18.7206H11.5956V22.2275C11.5956 22.4385 11.7596 22.6025 11.9706 22.6025H17.1268C17.4081 23.0479 17.7831 23.4463 18.205 23.7275H11.9706C11.1268 23.7275 10.4706 23.0713 10.4706 22.2275V16.2275V15.1025V14.7275C10.4706 13.9072 11.1268 13.2275 11.9706 13.2275H12.9081V12.29C12.9081 11.9854 13.1425 11.7275 13.4706 11.7275ZM17.2206 20.3525C17.2206 19.1572 17.8534 18.0557 18.9081 17.4463C19.9393 16.8369 21.2284 16.8369 22.2831 17.4463C23.3143 18.0557 23.9706 19.1572 23.9706 20.3525C23.9706 21.5713 23.3143 22.6729 22.2831 23.2822C21.2284 23.8916 19.9393 23.8916 18.9081 23.2822C17.8534 22.6729 17.2206 21.5713 17.2206 20.3525ZM22.4706 20.3525C22.4706 20.165 22.2831 19.9775 22.0956 19.9775H19.0956C18.8846 19.9775 18.7206 20.165 18.7206 20.3525C18.7206 20.5635 18.8846 20.7275 19.0956 20.7275H22.0956C22.2831 20.7275 22.4706 20.5635 22.4706 20.3525Z" fill="#605E5C"/>
</svg>
