<svg width="26" height="26" viewBox="0 0 26 26" fill="none" xmlns="http://www.w3.org/2000/svg">
<rect x="1.41421" y="12.7275" width="16" height="16" rx="3" transform="rotate(-45 1.41421 12.7275)" fill="#D0E9D7"/>
<rect x="1.41421" y="12.7275" width="16" height="16" rx="3" transform="rotate(-45 1.41421 12.7275)" stroke="#3B7142" stroke-width="2"/>
<path d="M10.4779 7.85254C10.7064 7.85254 10.8998 8.0459 10.8998 8.27441V8.97754H13.431V8.27441C13.431 8.0459 13.6068 7.85254 13.8529 7.85254C14.0814 7.85254 14.2748 8.0459 14.2748 8.27441V8.97754H14.9779C15.5931 8.97754 16.1029 9.4873 16.1029 10.1025V10.3838V11.2275H15.8217H15.2592H14.4154H9.07166V15.7275C9.07166 15.8857 9.1947 16.0088 9.35291 16.0088H13.2201C13.431 16.3428 13.7123 16.6416 14.0287 16.8525H9.35291C8.72009 16.8525 8.22791 16.3604 8.22791 15.7275V11.2275V10.3838V10.1025C8.22791 9.4873 8.72009 8.97754 9.35291 8.97754H10.056V8.27441C10.056 8.0459 10.2318 7.85254 10.4779 7.85254ZM13.2904 14.3213C13.2904 13.4248 13.765 12.5986 14.556 12.1416C15.3295 11.6846 16.2963 11.6846 17.0873 12.1416C17.8607 12.5986 18.3529 13.4248 18.3529 14.3213C18.3529 15.2354 17.8607 16.0615 17.0873 16.5186C16.2963 16.9756 15.3295 16.9756 14.556 16.5186C13.765 16.0615 13.2904 15.2354 13.2904 14.3213ZM17.2279 14.3213C17.2279 14.1807 17.0873 14.04 16.9467 14.04H14.6967C14.5385 14.04 14.4154 14.1807 14.4154 14.3213C14.4154 14.4795 14.5385 14.6025 14.6967 14.6025H16.9467C17.0873 14.6025 17.2279 14.4795 17.2279 14.3213Z" fill="#3B7142"/>
</svg>
