<svg width="35" height="35" viewBox="0 0 35 35" fill="none" xmlns="http://www.w3.org/2000/svg">
<rect x="2.1716" y="17.7275" width="22" height="22" rx="3" transform="rotate(-45 2.1716 17.7275)" fill="#42814A"/>
<rect x="2.1716" y="17.7275" width="22" height="22" rx="3" transform="rotate(-45 2.1716 17.7275)" stroke="#3B7142" stroke-width="2"/>
<path d="M15.228 11.7275C15.6264 11.7275 15.978 12.0791 15.978 12.4775V13.2275H18.978V12.4775C18.978 12.0791 19.3061 11.7275 19.728 11.7275C20.1264 11.7275 20.478 12.0791 20.478 12.4775V13.2275H21.603C22.2123 13.2275 22.728 13.7432 22.728 14.3525V15.4775H12.228V14.3525C12.228 13.7432 12.7202 13.2275 13.353 13.2275H14.478V12.4775C14.478 12.0791 14.8061 11.7275 15.228 11.7275ZM12.228 16.2275H22.728V22.6025C22.728 23.2354 22.2123 23.7275 21.603 23.7275H13.353C12.7202 23.7275 12.228 23.2354 12.228 22.6025V16.2275ZM13.728 18.1025V18.8525C13.728 19.0635 13.892 19.2275 14.103 19.2275H14.853C15.0405 19.2275 15.228 19.0635 15.228 18.8525V18.1025C15.228 17.915 15.0405 17.7275 14.853 17.7275H14.103C13.892 17.7275 13.728 17.915 13.728 18.1025ZM16.728 18.1025V18.8525C16.728 19.0635 16.892 19.2275 17.103 19.2275H17.853C18.0405 19.2275 18.228 19.0635 18.228 18.8525V18.1025C18.228 17.915 18.0405 17.7275 17.853 17.7275H17.103C16.892 17.7275 16.728 17.915 16.728 18.1025ZM20.103 17.7275C19.892 17.7275 19.728 17.915 19.728 18.1025V18.8525C19.728 19.0635 19.892 19.2275 20.103 19.2275H20.853C21.0405 19.2275 21.228 19.0635 21.228 18.8525V18.1025C21.228 17.915 21.0405 17.7275 20.853 17.7275H20.103ZM13.728 21.1025V21.8525C13.728 22.0635 13.892 22.2275 14.103 22.2275H14.853C15.0405 22.2275 15.228 22.0635 15.228 21.8525V21.1025C15.228 20.915 15.0405 20.7275 14.853 20.7275H14.103C13.892 20.7275 13.728 20.915 13.728 21.1025ZM17.103 20.7275C16.892 20.7275 16.728 20.915 16.728 21.1025V21.8525C16.728 22.0635 16.892 22.2275 17.103 22.2275H17.853C18.0405 22.2275 18.228 22.0635 18.228 21.8525V21.1025C18.228 20.915 18.0405 20.7275 17.853 20.7275H17.103ZM19.728 21.1025V21.8525C19.728 22.0635 19.892 22.2275 20.103 22.2275H20.853C21.0405 22.2275 21.228 22.0635 21.228 21.8525V21.1025C21.228 20.915 21.0405 20.7275 20.853 20.7275H20.103C19.892 20.7275 19.728 20.915 19.728 21.1025Z" fill="white"/>
</svg>
