<svg width="26" height="26" viewBox="0 0 26 26" fill="none" xmlns="http://www.w3.org/2000/svg">
<rect x="1.41421" y="12.7275" width="16" height="16" rx="3" transform="rotate(-45 1.41421 12.7275)" fill="#EFB4BA"/>
<rect x="1.41421" y="12.7275" width="16" height="16" rx="3" transform="rotate(-45 1.41421 12.7275)" stroke="#CE3E39" stroke-width="2"/>
<path d="M10.7279 7.47754C11.0599 7.47754 11.3529 7.77051 11.3529 8.10254V8.72754H13.8529V8.10254C13.8529 7.77051 14.1263 7.47754 14.4779 7.47754C14.8099 7.47754 15.1029 7.77051 15.1029 8.10254V8.72754H16.0404C16.5482 8.72754 16.9779 9.15723 16.9779 9.66504V10.6025H8.22791V9.66504C8.22791 9.15723 8.63806 8.72754 9.16541 8.72754H10.1029V8.10254C10.1029 7.77051 10.3763 7.47754 10.7279 7.47754ZM8.22791 11.2275H16.9779V16.54C16.9779 17.0674 16.5482 17.4775 16.0404 17.4775H9.16541C8.63806 17.4775 8.22791 17.0674 8.22791 16.54V11.2275ZM9.47791 12.79V13.415C9.47791 13.5908 9.61462 13.7275 9.79041 13.7275H10.4154C10.5717 13.7275 10.7279 13.5908 10.7279 13.415V12.79C10.7279 12.6338 10.5717 12.4775 10.4154 12.4775H9.79041C9.61462 12.4775 9.47791 12.6338 9.47791 12.79ZM11.9779 12.79V13.415C11.9779 13.5908 12.1146 13.7275 12.2904 13.7275H12.9154C13.0717 13.7275 13.2279 13.5908 13.2279 13.415V12.79C13.2279 12.6338 13.0717 12.4775 12.9154 12.4775H12.2904C12.1146 12.4775 11.9779 12.6338 11.9779 12.79ZM14.7904 12.4775C14.6146 12.4775 14.4779 12.6338 14.4779 12.79V13.415C14.4779 13.5908 14.6146 13.7275 14.7904 13.7275H15.4154C15.5717 13.7275 15.7279 13.5908 15.7279 13.415V12.79C15.7279 12.6338 15.5717 12.4775 15.4154 12.4775H14.7904ZM9.47791 15.29V15.915C9.47791 16.0908 9.61462 16.2275 9.79041 16.2275H10.4154C10.5717 16.2275 10.7279 16.0908 10.7279 15.915V15.29C10.7279 15.1338 10.5717 14.9775 10.4154 14.9775H9.79041C9.61462 14.9775 9.47791 15.1338 9.47791 15.29ZM12.2904 14.9775C12.1146 14.9775 11.9779 15.1338 11.9779 15.29V15.915C11.9779 16.0908 12.1146 16.2275 12.2904 16.2275H12.9154C13.0717 16.2275 13.2279 16.0908 13.2279 15.915V15.29C13.2279 15.1338 13.0717 14.9775 12.9154 14.9775H12.2904ZM14.4779 15.29V15.915C14.4779 16.0908 14.6146 16.2275 14.7904 16.2275H15.4154C15.5717 16.2275 15.7279 16.0908 15.7279 15.915V15.29C15.7279 15.1338 15.5717 14.9775 15.4154 14.9775H14.7904C14.6146 14.9775 14.4779 15.1338 14.4779 15.29Z" fill="#CE3E39"/>
</svg>
