<svg width="26" height="26" viewBox="0 0 26 26" fill="none" xmlns="http://www.w3.org/2000/svg">
<rect x="1.41421" y="12.7279" width="16" height="16" rx="3" transform="rotate(-45 1.41421 12.7279)" fill="#EFB4BA"/>
<rect x="1.41421" y="12.7279" width="16" height="16" rx="3" transform="rotate(-45 1.41421 12.7279)" stroke="#CE3E39" stroke-width="2"/>
<path d="M11.2279 7.13114C11.2279 6.35615 11.8995 5.72791 12.7279 5.72791C13.5563 5.72791 14.2279 6.35615 14.2279 7.13114V13.9424C14.2279 14.7174 13.5563 15.3456 12.7279 15.3456C11.8995 15.3456 11.2279 14.7174 11.2279 13.9424V7.13114Z" fill="#CE3E39"/>
<path d="M14.2279 18.3247C14.2279 19.0997 13.5563 19.7279 12.7279 19.7279C11.8995 19.7279 11.2279 19.0997 11.2279 18.3247C11.2279 17.5497 11.8995 16.9214 12.7279 16.9214C13.5563 16.9214 14.2279 17.5497 14.2279 18.3247Z" fill="#CE3E39"/>
</svg>
