<svg width="32" height="28" viewBox="0 0 32 28" fill="none" xmlns="http://www.w3.org/2000/svg">
<path d="M16.0004 25.8334C14.7799 25.8334 13.6816 25.2961 13.1566 24.3754L2.46228 5.61462C2.02562 4.84864 2.12576 4.04198 2.62342 3.37927C3.13371 2.69976 4.08234 2.16646 5.30506 2.16638L26.6947 2.16638C27.9175 2.16639 28.866 2.69977 29.3763 3.37927C29.8739 4.04189 29.9749 4.84873 29.5385 5.61462L18.8431 24.3754C18.3182 25.2959 17.2206 25.8333 16.0004 25.8334Z" fill="#9F9D9C" stroke="#605E5C" stroke-width="2"/>
<path d="M10.1689 4.72913C10.5342 4.72913 10.8564 5.05139 10.8564 5.41663V6.10413H12.6826L10.8564 9.77795V13.6666C10.8564 14.0533 10.5342 14.3541 10.1689 14.3541C9.78223 14.3541 9.48145 14.0533 9.48145 13.6666V5.41663C9.48145 5.05139 9.78223 4.72913 10.1689 4.72913ZM18.1826 6.10413L16.2275 10.0143L16.1201 10.2291H14.5088L16.4639 6.34045L16.5713 6.10413H18.1826ZM17.2588 10.2291L19.2139 6.34045L19.3213 6.10413H20.9326L18.9775 10.0143L18.8701 10.2291H17.2588ZM13.8213 6.10413H15.4326L13.4775 10.0143L13.3701 10.2291H11.7588L13.7139 6.34045L13.8213 6.10413ZM20.0088 10.2291L21.8564 6.57678V5.41663C21.8564 5.05139 22.1572 4.72913 22.5439 4.72913C22.9092 4.72913 23.2314 5.05139 23.2314 5.41663V13.6666C23.2314 14.0533 22.9092 14.3541 22.5439 14.3541C22.1572 14.3541 21.8564 14.0533 21.8564 13.6666V10.2291H20.0088Z" fill="#605E5C"/>
</svg>
