<svg width="27" height="24" viewBox="0 0 27 24" fill="none" xmlns="http://www.w3.org/2000/svg">
<path d="M13.5 22C12.5186 22 11.652 21.5617 11.2402 20.8281L2.21582 4.74805C1.87539 4.14137 1.95249 3.50473 2.34278 2.97656C2.74422 2.43348 3.49654 2 4.47656 2L22.5234 2C23.5035 2 24.2558 2.43349 24.6572 2.97656C25.0475 3.50473 25.1246 4.14137 24.7842 4.74805L15.7598 20.8281C15.348 21.5617 14.4814 22 13.5 22Z" fill="white" stroke="#3B7142" stroke-width="2"/>
<path d="M11.25 4.125C11.5488 4.125 11.8125 4.38867 11.8125 4.6875V5.25H14.0625V4.6875C14.0625 4.38867 14.3086 4.125 14.625 4.125C14.9238 4.125 15.1875 4.38867 15.1875 4.6875V5.25H16.0312C16.4883 5.25 16.875 5.63672 16.875 6.09375V6.9375H9V6.09375C9 5.63672 9.36914 5.25 9.84375 5.25H10.6875V4.6875C10.6875 4.38867 10.9336 4.125 11.25 4.125ZM13.5 10.5937C13.5 11.6484 14.0098 12.5801 14.8008 13.125H9.84375C9.36914 13.125 9 12.7559 9 12.2812V7.5H16.3125V7.51758C14.7305 7.6582 13.5 8.99414 13.5 10.5937ZM19.125 10.5937C19.125 11.5078 18.6328 12.334 17.8594 12.791C17.0684 13.248 16.1016 13.248 15.3281 12.791C14.5371 12.334 14.0625 11.5078 14.0625 10.5937C14.0625 9.69727 14.5371 8.87109 15.3281 8.41406C16.1016 7.95703 17.0684 7.95703 17.8594 8.41406C18.6328 8.87109 19.125 9.69727 19.125 10.5937ZM18 10.5937C18 10.4531 17.8594 10.3125 17.7187 10.3125H15.4687C15.3105 10.3125 15.1875 10.4531 15.1875 10.5937C15.1875 10.752 15.3105 10.875 15.4687 10.875H17.7187C17.8594 10.875 18 10.752 18 10.5937Z" fill="#3B7142"/>
</svg>
