<svg width="32" height="28" viewBox="0 0 32 28" fill="none" xmlns="http://www.w3.org/2000/svg">
<path d="M16.0004 25.8334C14.7799 25.8334 13.6816 25.2961 13.1566 24.3754L2.46228 5.61462C2.02562 4.84864 2.12576 4.04198 2.62342 3.37927C3.13371 2.69976 4.08234 2.16646 5.30506 2.16638L26.6947 2.16638C27.9175 2.16639 28.866 2.69977 29.3763 3.37927C29.8739 4.04189 29.9749 4.84873 29.5385 5.61462L18.8431 24.3754C18.3182 25.2959 17.2206 25.8333 16.0004 25.8334Z" fill="#9F9D9C" stroke="#605E5C" stroke-width="2"/>
<path d="M14.3834 7.95837L15.3073 5.65955C15.3932 5.40173 15.651 5.20837 15.9303 5.20837H16.3815C16.6608 5.20837 16.9186 5.40173 17.026 5.65955L17.9283 7.95837H14.3834ZM13.8463 9.33337H18.4655L19.2819 11.3959H13.0299L13.8463 9.33337ZM11.6979 14.8334L12.4928 12.7709H19.819L20.6354 14.8334H20.9791C21.3444 14.8334 21.6666 15.1556 21.6666 15.5209C21.6666 15.9076 21.3444 16.2084 20.9791 16.2084H11.3541C10.9674 16.2084 10.6666 15.9076 10.6666 15.5209C10.6666 15.1556 10.9674 14.8334 11.3541 14.8334H11.6979Z" fill="#605E5C"/>
</svg>
