<svg width="32" height="28" viewBox="0 0 32 28" fill="none" xmlns="http://www.w3.org/2000/svg">
<path d="M16.0004 25.8334C14.7799 25.8334 13.6816 25.2961 13.1566 24.3754L2.46228 5.61462C2.02562 4.84864 2.12576 4.04198 2.62342 3.37927C3.13371 2.69976 4.08234 2.16646 5.30506 2.16638L26.6947 2.16638C27.9175 2.16639 28.866 2.69977 29.3763 3.37927C29.8739 4.04189 29.9749 4.84873 29.5385 5.61462L18.8431 24.3754C18.3182 25.2959 17.2206 25.8333 16.0004 25.8334Z" fill="#FCBA19" stroke="#584215" stroke-width="2"/>
<path d="M13.4166 5.04163C13.7819 5.04163 14.1041 5.36389 14.1041 5.72913V6.41663H16.8541V5.72913C16.8541 5.36389 17.1549 5.04163 17.5416 5.04163C17.9069 5.04163 18.2291 5.36389 18.2291 5.72913V6.41663H19.2604C19.819 6.41663 20.2916 6.88928 20.2916 7.44788V8.47913H10.6666V7.44788C10.6666 6.88928 11.1178 6.41663 11.6979 6.41663H12.7291V5.72913C12.7291 5.36389 13.0299 5.04163 13.4166 5.04163ZM10.6666 9.16663H20.2916V15.0104C20.2916 15.5905 19.819 16.0416 19.2604 16.0416H11.6979C11.1178 16.0416 10.6666 15.5905 10.6666 15.0104V9.16663ZM12.0416 10.8854V11.5729C12.0416 11.7662 12.192 11.9166 12.3854 11.9166H13.0729C13.2448 11.9166 13.4166 11.7662 13.4166 11.5729V10.8854C13.4166 10.7135 13.2448 10.5416 13.0729 10.5416H12.3854C12.192 10.5416 12.0416 10.7135 12.0416 10.8854ZM14.7916 10.8854V11.5729C14.7916 11.7662 14.942 11.9166 15.1354 11.9166H15.8229C15.9948 11.9166 16.1666 11.7662 16.1666 11.5729V10.8854C16.1666 10.7135 15.9948 10.5416 15.8229 10.5416H15.1354C14.942 10.5416 14.7916 10.7135 14.7916 10.8854ZM17.8854 10.5416C17.692 10.5416 17.5416 10.7135 17.5416 10.8854V11.5729C17.5416 11.7662 17.692 11.9166 17.8854 11.9166H18.5729C18.7448 11.9166 18.9166 11.7662 18.9166 11.5729V10.8854C18.9166 10.7135 18.7448 10.5416 18.5729 10.5416H17.8854ZM12.0416 13.6354V14.3229C12.0416 14.5162 12.192 14.6666 12.3854 14.6666H13.0729C13.2448 14.6666 13.4166 14.5162 13.4166 14.3229V13.6354C13.4166 13.4635 13.2448 13.2916 13.0729 13.2916H12.3854C12.192 13.2916 12.0416 13.4635 12.0416 13.6354ZM15.1354 13.2916C14.942 13.2916 14.7916 13.4635 14.7916 13.6354V14.3229C14.7916 14.5162 14.942 14.6666 15.1354 14.6666H15.8229C15.9948 14.6666 16.1666 14.5162 16.1666 14.3229V13.6354C16.1666 13.4635 15.9948 13.2916 15.8229 13.2916H15.1354ZM17.5416 13.6354V14.3229C17.5416 14.5162 17.692 14.6666 17.8854 14.6666H18.5729C18.7448 14.6666 18.9166 14.5162 18.9166 14.3229V13.6354C18.9166 13.4635 18.7448 13.2916 18.5729 13.2916H17.8854C17.692 13.2916 17.5416 13.4635 17.5416 13.6354Z" fill="#584215"/>
</svg>
