<svg width="27" height="24" viewBox="0 0 27 24" fill="none" xmlns="http://www.w3.org/2000/svg">
<path d="M13.5 22C12.5186 22 11.652 21.5617 11.2402 20.8281L2.21582 4.74805C1.87539 4.14137 1.95249 3.50473 2.34278 2.97656C2.74422 2.43348 3.49654 2 4.47656 2L22.5234 2C23.5035 2 24.2558 2.43349 24.6572 2.97656C25.0475 3.50473 25.1246 4.14137 24.7842 4.74805L15.7598 20.8281C15.348 21.5617 14.4814 22 13.5 22Z" fill="white" stroke="#3B7142" stroke-width="2"/>
<path d="M11.5 4.25C11.832 4.25 12.125 4.54297 12.125 4.875V5.5H14.625V4.875C14.625 4.54297 14.8984 4.25 15.25 4.25C15.582 4.25 15.875 4.54297 15.875 4.875V5.5H16.8125C17.3203 5.5 17.75 5.92969 17.75 6.4375V7.375H9V6.4375C9 5.92969 9.41016 5.5 9.9375 5.5H10.875V4.875C10.875 4.54297 11.1484 4.25 11.5 4.25ZM9 8H17.75V13.3125C17.75 13.8398 17.3203 14.25 16.8125 14.25H9.9375C9.41016 14.25 9 13.8398 9 13.3125V8ZM10.25 9.5625V10.1875C10.25 10.3633 10.3867 10.5 10.5625 10.5H11.1875C11.3437 10.5 11.5 10.3633 11.5 10.1875V9.5625C11.5 9.40625 11.3437 9.25 11.1875 9.25H10.5625C10.3867 9.25 10.25 9.40625 10.25 9.5625ZM12.75 9.5625V10.1875C12.75 10.3633 12.8867 10.5 13.0625 10.5H13.6875C13.8437 10.5 14 10.3633 14 10.1875V9.5625C14 9.40625 13.8437 9.25 13.6875 9.25H13.0625C12.8867 9.25 12.75 9.40625 12.75 9.5625ZM15.5625 9.25C15.3867 9.25 15.25 9.40625 15.25 9.5625V10.1875C15.25 10.3633 15.3867 10.5 15.5625 10.5H16.1875C16.3437 10.5 16.5 10.3633 16.5 10.1875V9.5625C16.5 9.40625 16.3437 9.25 16.1875 9.25H15.5625ZM10.25 12.0625V12.6875C10.25 12.8633 10.3867 13 10.5625 13H11.1875C11.3437 13 11.5 12.8633 11.5 12.6875V12.0625C11.5 11.9062 11.3437 11.75 11.1875 11.75H10.5625C10.3867 11.75 10.25 11.9062 10.25 12.0625ZM13.0625 11.75C12.8867 11.75 12.75 11.9062 12.75 12.0625V12.6875C12.75 12.8633 12.8867 13 13.0625 13H13.6875C13.8437 13 14 12.8633 14 12.6875V12.0625C14 11.9062 13.8437 11.75 13.6875 11.75H13.0625ZM15.25 12.0625V12.6875C15.25 12.8633 15.3867 13 15.5625 13H16.1875C16.3437 13 16.5 12.8633 16.5 12.6875V12.0625C16.5 11.9062 16.3437 11.75 16.1875 11.75H15.5625C15.3867 11.75 15.25 11.9062 15.25 12.0625Z" fill="#3B7142"/>
</svg>
