<svg width="27" height="24" viewBox="0 0 27 24" fill="none" xmlns="http://www.w3.org/2000/svg">
<path d="M13.5 22C12.5186 22 11.652 21.5617 11.2402 20.8281L2.21582 4.74805C1.87539 4.14137 1.95249 3.50473 2.34278 2.97656C2.74422 2.43348 3.49654 2 4.47656 2L22.5234 2C23.5035 2 24.2558 2.43349 24.6572 2.97656C25.0475 3.50473 25.1246 4.14137 24.7842 4.74805L15.7598 20.8281C15.348 21.5617 14.4814 22 13.5 22Z" fill="#FACC75" stroke="#584215" stroke-width="2"/>
<path d="M12.041 7.375L12.7969 5.49414C12.8672 5.2832 13.0781 5.125 13.3066 5.125H13.6758C13.9043 5.125 14.1152 5.2832 14.2031 5.49414L14.9414 7.375H12.041ZM11.6016 8.5H15.3809L16.0488 10.1875H10.9336L11.6016 8.5ZM9.84375 13L10.4941 11.3125H16.4883L17.1562 13H17.4375C17.7363 13 18 13.2637 18 13.5625C18 13.8789 17.7363 14.125 17.4375 14.125H9.5625C9.24609 14.125 9 13.8789 9 13.5625C9 13.2637 9.24609 13 9.5625 13H9.84375Z" fill="#584215"/>
</svg>
