<svg width="32" height="28" viewBox="0 0 32 28" fill="none" xmlns="http://www.w3.org/2000/svg">
<path d="M16.0004 25.8334C14.7799 25.8334 13.6816 25.2961 13.1566 24.3754L2.46228 5.61462C2.02562 4.84864 2.12576 4.04198 2.62342 3.37927C3.13371 2.69976 4.08234 2.16646 5.30506 2.16638L26.6947 2.16638C27.9175 2.16639 28.866 2.69977 29.3763 3.37927C29.8739 4.04189 29.9749 4.84873 29.5385 5.61462L18.8431 24.3754C18.3182 25.2959 17.2206 25.8333 16.0004 25.8334Z" fill="#FCBA19" stroke="#584215" stroke-width="2"/>
<path d="M13.4166 5.04163C13.7819 5.04163 14.1041 5.36389 14.1041 5.72913V6.41663H16.8541V5.72913C16.8541 5.36389 17.1549 5.04163 17.5416 5.04163C17.9069 5.04163 18.2291 5.36389 18.2291 5.72913V6.41663H19.2604C19.819 6.41663 20.2916 6.88928 20.2916 7.44788V8.47913H10.6666V7.44788C10.6666 6.88928 11.1178 6.41663 11.6979 6.41663H12.7291V5.72913C12.7291 5.36389 13.0299 5.04163 13.4166 5.04163ZM16.1666 12.9479C16.1666 14.2369 16.7897 15.3756 17.7565 16.0416H11.6979C11.1178 16.0416 10.6666 15.5905 10.6666 15.0104V9.16663H19.6041V9.18811C17.6705 9.35999 16.1666 10.9928 16.1666 12.9479ZM23.0416 12.9479C23.0416 14.0651 22.4401 15.0748 21.4948 15.6334C20.528 16.192 19.3463 16.192 18.401 15.6334C17.4342 15.0748 16.8541 14.0651 16.8541 12.9479C16.8541 11.8522 17.4342 10.8424 18.401 10.2838C19.3463 9.72522 20.528 9.72522 21.4948 10.2838C22.4401 10.8424 23.0416 11.8522 23.0416 12.9479ZM21.6666 12.9479C21.6666 12.776 21.4948 12.6041 21.3229 12.6041H18.5729C18.3795 12.6041 18.2291 12.776 18.2291 12.9479C18.2291 13.1412 18.3795 13.2916 18.5729 13.2916H21.3229C21.4948 13.2916 21.6666 13.1412 21.6666 12.9479Z" fill="#584215"/>
</svg>
