<svg width="27" height="24" viewBox="0 0 27 24" fill="none" xmlns="http://www.w3.org/2000/svg">
<path d="M13.5 22C12.5186 22 11.652 21.5617 11.2402 20.8281L2.21582 4.74805C1.87539 4.14137 1.95249 3.50473 2.34278 2.97656C2.74422 2.43348 3.49654 2 4.47656 2L22.5234 2C23.5035 2 24.2558 2.43349 24.6572 2.97656C25.0475 3.50473 25.1246 4.14137 24.7842 4.74805L15.7598 20.8281C15.348 21.5617 14.4814 22 13.5 22Z" fill="#ECEAE8" stroke="#9F9D9C" stroke-width="2"/>
<path d="M8.53125 5.09375C8.81348 5.09375 9.0625 5.34277 9.0625 5.625V6.15625H10.4736L9.0625 8.99512V12C9.0625 12.2988 8.81348 12.5312 8.53125 12.5312C8.23242 12.5312 8 12.2988 8 12V5.625C8 5.34277 8.23242 5.09375 8.53125 5.09375ZM14.7236 6.15625L13.2129 9.17773L13.1299 9.34375H11.8848L13.3955 6.33887L13.4785 6.15625H14.7236ZM14.0098 9.34375L15.5205 6.33887L15.6035 6.15625H16.8486L15.3379 9.17773L15.2549 9.34375H14.0098ZM11.3535 6.15625H12.5986L11.0879 9.17773L11.0049 9.34375H9.75977L11.2705 6.33887L11.3535 6.15625ZM16.1348 9.34375L17.5625 6.52148V5.625C17.5625 5.34277 17.7949 5.09375 18.0937 5.09375C18.376 5.09375 18.625 5.34277 18.625 5.625V12C18.625 12.2988 18.376 12.5312 18.0937 12.5312C17.7949 12.5312 17.5625 12.2988 17.5625 12V9.34375H16.1348Z" fill="#9F9D9C"/>
</svg>
