<svg width="29" height="29" viewBox="0 0 29 29" fill="none" xmlns="http://www.w3.org/2000/svg">
<path d="M14.5205 2C18.838 2 22.8179 4.25169 25.0977 7.8877L25.3135 8.24316L25.3184 8.25293C27.5577 12.1475 27.5646 16.8907 25.3135 20.7568L25.3125 20.7559C23.0661 24.655 18.9617 27 14.5205 27C10.0427 27 5.93607 24.6587 3.6875 20.7559C1.43635 16.8897 1.44227 12.1475 3.68164 8.25293L3.68652 8.24316C5.92738 4.39496 10.0271 2 14.5205 2ZM14.5205 12.5625C13.8495 12.5625 13.2064 12.9181 12.7988 13.5488C12.4612 14.1698 12.4813 14.9063 12.7979 15.4512C13.1845 16.0872 13.8096 16.4375 14.5205 16.4375C15.1792 16.4375 15.8085 16.0968 16.2012 15.4512C16.5181 14.9059 16.5385 14.1692 16.2002 13.5479C15.7865 12.9082 15.1401 12.5625 14.5205 12.5625Z" fill="#42814A" stroke="white" stroke-width="4"/>
</svg>