<svg width="24" height="24" viewBox="0 0 24 24" fill="none" xmlns="http://www.w3.org/2000/svg">
<rect x="1" y="1" width="22" height="22" rx="3" fill="#D0E9D7"/>
<rect x="1" y="1" width="22" height="22" rx="3" stroke="#3B7142" stroke-width="2"/>
<path fill-rule="evenodd" clip-rule="evenodd" d="M18.6921 12.7801L12.7801 18.6921C12.3421 19.1026 11.6579 19.1026 11.2199 18.6921L5.30792 12.7801C4.89736 12.3421 4.89736 11.6579 5.30792 11.2199L11.2199 5.30792C11.6579 4.89736 12.3421 4.89736 12.7801 5.30792L18.6921 11.2199C19.1026 11.6579 19.1026 12.3421 18.6921 12.7801ZM18.1768 12.3618L15.812 14.7266C15.6368 14.8908 15.3631 14.8908 15.1879 14.7266L12.8231 12.3618C12.6589 12.1866 12.6589 11.9129 12.8231 11.7377L15.1879 9.3729C15.3631 9.20867 15.6368 9.20867 15.812 9.3729L18.1768 11.7377C18.341 11.9129 18.341 12.1866 18.1768 12.3618ZM8.81198 14.7266L11.1768 12.3618C11.341 12.1866 11.341 11.9129 11.1768 11.7377L8.81198 9.3729C8.63681 9.20867 8.3631 9.20867 8.18793 9.3729L5.82312 11.7377C5.65889 11.9129 5.65889 12.1866 5.82312 12.3618L8.18793 14.7266C8.3631 14.8908 8.63681 14.8908 8.81198 14.7266Z" fill="#3B7142"/>
</svg>
