<svg width="32" height="32" viewBox="0 0 32 32" fill="none" xmlns="http://www.w3.org/2000/svg">
<rect x="1" y="1" width="30" height="30" rx="3" fill="#42814A"/>
<rect x="1" y="1" width="30" height="30" rx="3" stroke="#3B7142" stroke-width="2"/>
<path fill-rule="evenodd" clip-rule="evenodd" d="M25.5601 17.1144L17.1144 25.5601C16.4888 26.1466 15.5112 26.1466 14.8856 25.5601L6.43988 17.1144C5.85337 16.4888 5.85337 15.5112 6.43988 14.8856L14.8856 6.43988C15.5112 5.85337 16.4888 5.85337 17.1144 6.43988L25.5601 14.8856C26.1466 15.5112 26.1466 16.4888 25.5601 17.1144ZM24.824 16.5168L21.4457 19.8951C21.1955 20.1297 20.8045 20.1297 20.5542 19.8951L17.1759 16.5168C16.9413 16.2666 16.9413 15.8755 17.1759 15.6253L20.5542 12.247C20.8045 12.0124 21.1955 12.0124 21.4457 12.247L24.824 15.6253C25.0586 15.8755 25.0586 16.2666 24.824 16.5168ZM11.4457 19.8951L14.824 16.5168C15.0586 16.2666 15.0586 15.8755 14.824 15.6253L11.4457 12.247C11.1954 12.0124 10.8044 12.0124 10.5542 12.247L7.17588 15.6253C6.94127 15.8755 6.94127 16.2666 7.17588 16.5168L10.5542 19.8951C10.8044 20.1297 11.1954 20.1297 11.4457 19.8951Z" fill="white"/>
</svg>
