<svg width="24" height="24" viewBox="0 0 24 24" fill="none" xmlns="http://www.w3.org/2000/svg">
<rect x="1" y="1" width="22" height="22" rx="3" fill="white"/>
<rect x="1" y="1" width="22" height="22" rx="3" stroke="#FCBA19" stroke-width="2"/>
<rect x="1" y="1" width="22" height="22" rx="3" fill="#FACC75"/>
<rect x="1" y="1" width="22" height="22" rx="3" stroke="#584215" stroke-width="2"/>
<path fill-rule="evenodd" clip-rule="evenodd" d="M19.6481 12.8915L12.8915 19.6481C12.391 20.1173 11.609 20.1173 11.1085 19.6481L4.35191 12.8915C3.8827 12.391 3.8827 11.609 4.35191 11.1085L11.1085 4.35191C11.609 3.8827 12.391 3.8827 12.8915 4.35191L19.6481 11.1085C20.1173 11.609 20.1173 12.391 19.6481 12.8915ZM19.0592 12.4134L16.3566 15.1161C16.1564 15.3038 15.8436 15.3038 15.6434 15.1161L12.9407 12.4134C12.753 12.2132 12.753 11.9004 12.9407 11.7002L15.6434 8.9976C15.8436 8.80991 16.1564 8.80991 16.3566 8.9976L19.0592 11.7002C19.2469 11.9004 19.2469 12.2132 19.0592 12.4134ZM8.35655 15.1161L11.0592 12.4134C11.2469 12.2132 11.2469 11.9004 11.0592 11.7002L8.35655 8.9976C8.15635 8.80991 7.84355 8.80991 7.64335 8.9976L4.9407 11.7002C4.75302 11.9004 4.75302 12.2132 4.9407 12.4134L7.64335 15.1161C7.84355 15.3038 8.15635 15.3038 8.35655 15.1161Z" fill="#584215"/>
</svg>
